<?xml version="1.0" encoding="UTF-8"?> <svg xmlns="http://www.w3.org/2000/svg" width="81" height="111" viewBox="0 0 81 111" fill="none"><mask id="mask0_358_53" style="mask-type:luminance" maskUnits="userSpaceOnUse" x="0" y="0" width="81" height="111"><path d="M80.91 0H0V110.25H80.91V0Z" fill="white"></path></mask><g mask="url(#mask0_358_53)"><path d="M28.53 55.7402C12.77 55.7402 0 57.5802 0 59.8602C0 62.1402 12.77 63.9802 28.53 63.9802C44.29 63.9802 57.06 62.1402 57.06 59.8602C57.06 57.5802 44.29 55.7402 28.53 55.7402ZM28.87 62.4002C14.9 62.4002 3.11 61.5802 3.11 59.8502C3.11 58.1202 14.91 57.3602 28.87 57.3602C42.83 57.3602 54.59 58.1502 54.59 59.8802C54.59 61.6102 42.83 62.4002 28.87 62.4002Z" fill="#808080"></path><path d="M54.5902 61.3104C54.4302 61.7504 53.5802 62.5904 53.4202 63.0304C52.9602 61.8304 53.0802 58.9204 52.0602 58.2904C51.7602 57.6704 50.6902 57.5504 50.5202 58.3804C49.9402 61.3404 48.9002 64.1804 47.7202 66.9504C45.7702 64.2704 43.1802 61.3104 43.8902 57.8004C43.9302 56.8504 42.5402 56.7204 42.2602 57.5804C41.9602 59.3804 40.8702 62.8704 40.8402 62.8704C40.7102 63.5204 38.7002 67.7604 37.9402 69.2304C36.7502 68.0404 35.5702 66.8304 34.5202 65.5304C32.5802 62.9104 32.4502 60.1504 32.3002 57.7004C32.3602 56.6804 30.5902 56.4904 30.6402 57.6404C30.6802 57.7604 29.9102 63.3504 29.9202 63.4904C29.1802 65.3704 28.3802 67.2304 27.5202 69.0604C24.5402 65.8504 21.5802 62.3704 21.4002 57.7804C21.3002 56.7204 19.8502 56.7304 19.7402 57.7804C19.5002 60.1604 18.2002 65.3004 18.3002 65.5104C17.8102 67.1304 17.3002 68.7403 16.7402 70.3403C14.6602 68.0703 12.6402 65.7504 10.7302 63.3404C9.9702 61.8404 9.3302 60.2404 8.6202 58.7104C8.2502 57.8804 7.1502 58.4104 7.0802 59.1204C6.8202 62.1104 6.5902 65.1004 5.6302 67.9604C4.6102 65.5104 3.4702 63.1104 2.2102 60.7704C1.7002 59.8404 -0.239804 59.4804 0.270196 60.4104C4.0502 67.3804 6.7802 75.8404 8.5702 83.4904C10.4302 91.4704 10.4302 99.9904 9.3402 108.08C9.2002 109.11 10.8002 109.56 10.9402 108.52C11.0102 107.99 11.0802 107.47 11.1402 106.94C13.3202 104.49 15.4802 101.99 17.6802 99.5204C19.3802 102.77 20.2602 106.59 22.0102 109.73C22.2402 110.21 22.8702 110.5 23.3102 109.98C25.5702 107.35 27.7302 104.65 29.8102 101.88C30.9102 103.8 33.2602 108.06 33.4502 108.11C33.4402 108.13 34.3602 109.95 34.8502 109C36.3202 106.14 37.9502 103.37 39.7502 100.71C41.0502 103 41.9802 105.47 43.0102 107.88C43.3202 109.07 44.2502 109.42 44.5902 108.38C45.0802 106.87 45.6002 105.38 46.1502 103.89C46.3302 105.09 46.5702 106.29 46.8602 107.49C47.1102 108.52 48.7102 108.08 48.4602 107.05C46.2002 97.6704 47.4502 87.9504 49.9802 78.7604C50.9702 75.1504 52.1502 71.6004 53.4202 68.0804C53.6202 67.5304 53.8202 66.9704 54.0202 66.4204C54.5302 65.0004 55.7602 62.2804 56.2802 60.8604C56.6502 59.8604 55.0002 60.3404 54.6402 61.3304L54.5902 61.3104ZM42.1002 64.1904C42.4102 63.6404 42.6802 63.0804 42.9102 62.5004C42.9502 62.5904 43.9802 64.9904 44.8002 65.7504C45.5202 66.7504 46.2702 67.7304 46.9702 68.7504C45.9902 71.0504 44.9602 73.3204 43.8802 75.5604C42.3802 73.8104 40.8102 72.1104 39.1802 70.4704C40.2502 68.4304 41.2302 66.3304 42.1002 64.1904ZM38.3602 71.9804C39.9902 73.6604 41.5802 75.3804 43.0802 77.1704C42.2102 78.9104 41.3102 80.6404 40.3802 82.3504C38.7302 80.5604 37.0202 78.8204 35.3002 77.1004C36.3702 75.4304 37.4002 73.7304 38.3602 71.9904V71.9804ZM39.5502 83.8404C38.2002 86.2504 36.7802 88.6304 35.3002 90.9704C33.6402 88.7904 31.8702 86.6804 30.0402 84.6104C31.5602 82.6004 33.0202 80.5604 34.4002 78.4704C36.1502 80.2304 37.8802 82.0104 39.5402 83.8404H39.5502ZM31.4002 64.2604C31.4002 64.2604 31.4502 64.1704 31.4702 64.1204C32.9902 66.5904 35.0902 68.6804 37.1502 70.7404C36.2002 72.4904 35.1802 74.2004 34.1002 75.8804C32.2902 74.0604 30.4802 72.2404 28.7302 70.3704C29.6902 68.3604 30.5802 66.3204 31.4002 64.2504V64.2604ZM27.9702 71.9204C29.6802 73.7304 31.4402 75.4904 33.2002 77.2504C31.8302 79.3104 30.3902 81.3304 28.8902 83.3104C27.4102 81.6704 25.9102 80.0604 24.3902 78.4604C25.6602 76.3204 26.8502 74.1404 27.9602 71.9204H27.9702ZM27.9002 84.6104C26.6202 86.2704 25.3002 87.9104 23.9602 89.5204C22.8102 87.8604 21.6302 86.2204 20.4202 84.6104C21.5002 83.0604 22.5402 81.4804 23.5302 79.8804C25.0102 81.4404 26.4702 83.0104 27.9002 84.6104ZM20.7202 63.1704C21.7502 64.2204 22.1302 66.0704 23.4102 66.7604C24.4802 68.0904 25.6102 69.3704 26.7602 70.6304C25.6602 72.8704 24.4802 75.0704 23.2102 77.2204C21.4602 75.3704 19.7002 73.5304 17.9802 71.6804C19.0102 68.8804 19.8802 66.0204 20.7102 63.1704H20.7202ZM17.3502 73.3704C19.0102 75.1404 20.6902 76.9004 22.3602 78.6604C21.4002 80.2204 20.4102 81.7504 19.3702 83.2504C18.0202 81.5004 16.6402 79.7804 15.2202 78.0904C16.0102 76.5604 16.7102 74.9804 17.3502 73.3704ZM18.3702 84.6604C17.1402 86.3704 15.8602 88.0404 14.5202 89.6704C13.5002 87.8404 12.4202 86.0404 11.3102 84.2704C12.4602 82.8004 13.4702 81.2604 14.3802 79.6604C15.7502 81.3004 17.0802 82.9704 18.3702 84.6604ZM8.5002 63.1404C10.7802 66.3304 13.5102 69.1004 16.1102 72.0404C15.5002 73.6404 14.8302 75.2104 14.0702 76.7404C11.8602 74.1604 9.5602 71.6704 6.8602 69.5804C7.5202 67.4604 8.0602 65.3104 8.5002 63.1404ZM10.3702 82.7904C9.0402 79.3204 8.5902 75.4204 7.1402 71.9004C9.3802 73.8204 11.3502 76.0604 13.2602 78.3104C12.4102 79.8604 11.4602 81.3604 10.3702 82.7904ZM10.7602 86.5104C11.6702 87.9904 12.5402 89.5004 13.3802 91.0204C12.7502 91.7604 12.1202 92.4904 11.4702 93.2104C11.3302 90.9704 11.0902 88.7404 10.7602 86.5204V86.5104ZM11.3802 104.14C11.6002 101.27 11.6702 98.3904 11.5802 95.5304C12.4802 94.5604 13.3702 93.5804 14.2302 92.5804C15.1502 94.3104 16.0302 96.0604 16.8702 97.8304C15.0402 99.9404 13.2102 102.04 11.3802 104.14ZM18.0502 96.4604C17.2002 94.6904 16.3102 92.9404 15.3702 91.2104C16.7702 89.5204 18.1202 87.7904 19.4002 86.0204C20.5902 87.6004 21.7302 89.2104 22.8502 90.8404C21.2602 92.7304 19.6602 94.6004 18.0402 96.4604H18.0502ZM22.8502 107.93C21.6502 104.61 20.3202 101.35 18.8502 98.1504C20.5402 96.2204 22.2202 94.2804 23.8702 92.3204C25.6202 94.9404 27.3002 97.6004 28.8902 100.32C26.9602 102.92 24.9502 105.46 22.8602 107.93H22.8502ZM24.9702 91.0004C26.3602 89.3204 27.7202 87.6304 29.0502 85.9104C30.9002 88.0204 32.6902 90.1804 34.3702 92.4204C32.9502 94.6004 31.4802 96.7504 29.9502 98.8604C28.3702 96.1904 26.7102 93.5704 24.9702 90.9904V91.0004ZM34.2202 106.58C33.1402 104.5 32.0202 102.45 30.8502 100.42C32.4302 98.2704 33.9502 96.0704 35.4102 93.8404C36.6202 95.5304 37.7702 97.2904 38.8202 99.0904C37.1502 101.5 35.6202 104 34.2202 106.58ZM36.3602 92.3804C37.8802 90.0104 39.3302 87.6004 40.7202 85.1504C42.0902 86.7204 43.3902 88.3504 44.6102 90.0504C43.3902 92.7904 41.6002 95.2004 39.8602 97.6304C38.7802 95.8304 37.6102 94.0804 36.3702 92.3804H36.3602ZM45.7502 100.84C44.6802 102.07 44.4502 104 43.7702 105.5C42.9002 103.32 41.8802 101.22 40.7502 99.2004C42.5102 96.7204 44.3102 94.3004 45.6602 91.6004C45.7002 91.6604 45.7502 91.7204 45.8002 91.7704C45.5302 94.7804 45.4902 97.8104 45.7502 100.84ZM46.0802 89.2604C44.6502 87.3404 43.1602 85.4404 41.5602 83.6504C42.4802 81.9804 43.3702 80.2904 44.2302 78.5804C45.3202 79.9004 46.2402 81.3604 47.2502 82.7404C46.7702 84.9004 46.3602 87.0804 46.0802 89.2604ZM47.7602 80.5904C46.9102 79.3404 45.9902 78.1304 45.0402 76.9604C46.1002 74.8104 47.1002 72.6204 48.0502 70.4204C48.7802 71.4004 48.9902 72.7704 49.7302 73.6904C49.0102 75.9704 48.3402 78.2804 47.7602 80.5904ZM50.2702 71.0704C49.8602 70.2004 49.3702 69.3604 48.8402 68.5604C49.5102 66.7904 50.8702 63.7504 51.4402 61.6004C51.7402 63.0704 52.0402 64.5404 52.3402 66.0104C51.6902 67.8304 51.0402 69.6703 50.4302 71.5203C50.3602 71.3103 50.3102 71.1404 50.2702 71.0604V71.0704Z" fill="black"></path><path d="M70.7594 61.02V58.02H54.3994V61.02H70.7594Z" fill="#808080"></path><path d="M79.842 79.4901C77.012 80.8001 69.722 80.6601 68.632 78.5301C67.712 76.7201 68.392 73.9801 68.412 72.1101C68.442 67.9001 68.802 63.6901 68.802 59.4801C68.802 48.5201 68.642 37.2801 68.632 26.2101C68.632 20.5301 68.672 14.8401 68.792 9.16012C68.842 6.92012 68.132 3.98012 69.092 1.82012C69.882 0.0401247 71.222 0.210125 73.882 0.120125C77.242 0.0101247 79.9516 0.000207186 80.3418 3.00024C80.3418 21.2604 80.252 38.5301 80.252 56.6401C80.252 60.3501 80.272 64.3201 80.252 68.1301C80.252 70.1801 80.242 72.2301 80.232 74.2901C80.252 75.5001 80.232 75.5001 80.232 79.3832C80.162 79.4432 79.932 79.4301 79.822 79.4901H79.842Z" fill="#808080"></path></g></svg> 