<?xml version="1.0" encoding="UTF-8"?> <svg xmlns="http://www.w3.org/2000/svg" width="400" height="400" viewBox="0 0 400 400" fill="none"><g clip-path="url(#clip0_1189_262)"><path d="M119.57 362.963H176.726C173.413 350.218 161.913 340.741 148.148 340.741C134.382 340.741 122.882 350.218 119.57 362.963Z" fill="#183961"></path><path d="M191.924 362.963H193.955C193.141 359.765 192.593 356.498 192.593 353.111V318.519H37.0371V362.963H104.373C107.916 341.977 126.169 325.926 148.148 325.926C170.128 325.926 188.38 341.977 191.924 362.963Z" fill="#183961"></path><path d="M252.185 248.423C253.038 240.916 255.541 233.917 259.259 227.726V207.407H191.924C188.38 228.394 170.128 244.445 148.148 244.445C126.169 244.445 107.916 228.394 104.373 207.407H37.0371V303.704H192.593C192.593 278.906 215.119 258.319 252.185 248.423Z" fill="#183961"></path><path d="M200.864 377.778H29.6296C25.5389 377.778 22.2222 374.465 22.2222 370.37V29.6296C22.2222 25.5353 25.5389 22.2222 29.6296 22.2222H266.667C270.761 22.2222 274.074 25.5353 274.074 29.6296V211.846C280.56 207.307 288.125 204.239 296.296 203.05V7.40741C296.296 3.31308 292.983 0 288.889 0H7.40741C3.3167 0 0 3.31308 0 7.40741V392.593C0 396.687 3.3167 400 7.40741 400H229.157C216.847 394.037 207.15 386.51 200.864 377.778Z" fill="#183961"></path><path d="M148.148 229.63C161.913 229.63 173.413 220.152 176.726 207.407H119.57C122.882 220.152 134.382 229.63 148.148 229.63Z" fill="#183961"></path><path d="M104.373 37.037H37.0371V81.4814H259.259V37.037H191.924C188.38 58.0231 170.128 74.074 148.148 74.074C126.169 74.074 107.916 58.0231 104.373 37.037Z" fill="#183961"></path><path d="M37.0371 192.593H104.373C107.916 171.606 126.169 155.556 148.148 155.556C170.128 155.556 188.38 171.606 191.924 192.593H259.259V96.2963H37.0371V192.593Z" fill="#183961"></path><path d="M148.148 170.37C134.382 170.37 122.882 179.848 119.57 192.593H176.726C173.413 179.848 161.913 170.37 148.148 170.37Z" fill="#183961"></path><path d="M176.726 37.037H119.57C122.882 49.7816 134.382 59.2592 148.148 59.2592C161.913 59.2592 173.413 49.7816 176.726 37.037Z" fill="#183961"></path><path d="M207.407 335.769V353.111C207.407 379.852 248.815 400 303.704 400C358.592 400 400 379.852 400 353.111V335.769C381.331 353.937 346.46 365.43 303.704 365.43C260.947 365.43 226.076 353.937 207.407 335.769Z" fill="#808080"></path><path d="M376.562 294.133C379.123 299.479 379.441 305.512 377.459 311.111C375.484 316.71 371.441 321.195 366.088 323.756C358.492 327.38 337.225 335.8 303.704 335.8C270.182 335.8 248.915 327.38 241.326 323.756C235.966 321.195 231.923 316.71 229.948 311.111C227.966 305.512 228.284 299.479 230.852 294.119C234.498 286.451 242.368 281.482 250.897 281.482C251.215 281.482 251.533 281.489 251.852 281.503V263.79C224.777 271.909 207.407 286.411 207.407 303.704C207.407 330.447 248.806 350.615 303.704 350.615C358.601 350.615 400 330.447 400 303.704C400 286.411 382.63 271.909 355.555 263.79V281.496C355.874 281.489 356.185 281.482 356.503 281.482C365.017 281.482 372.895 286.444 376.562 294.133Z" fill="#808080"></path><path d="M266.667 250.027V299.412C266.667 300.195 266.887 300.911 267.112 301.619C260.514 299.817 256.052 297.958 254.087 297.02C250.391 295.255 245.971 296.817 244.213 300.514C242.448 304.203 244.01 308.623 247.707 310.388C254.377 313.571 273.184 320.985 303.704 320.985C334.223 320.985 353.031 313.571 359.701 310.388C363.397 308.623 364.96 304.203 363.195 300.514C361.429 296.817 356.995 295.255 353.32 297.02C351.355 297.958 346.894 299.817 340.296 301.619C340.521 300.911 340.741 300.195 340.741 299.412V250.027C340.741 229.606 324.125 212.99 303.704 212.99C283.283 212.99 266.667 229.606 266.667 250.027Z" fill="#808080"></path></g><defs><clipPath id="clip0_1189_262"><rect width="400" height="400" fill="white"></rect></clipPath></defs></svg> 