<?xml version="1.0" encoding="UTF-8"?> <svg xmlns="http://www.w3.org/2000/svg" id="glyph" version="1.1" viewBox="0 0 100 100"><defs><style> .st0 { fill: #fff; } </style></defs><path class="st0" d="M94.6,85.7h-5.4v-42.9c3,0,5.4-2.4,5.4-5.4v-7.1c0-3-2.4-5.4-5.4-5.4h-25v-3.6h5.4c4.9,0,8.9-4,8.9-8.9v-3.6C78.5,3.9,74.5-.1,69.6-.1H30.4c-4.9,0-8.9,4-8.9,8.9v3.6c0,4.9,4,8.9,8.9,8.9h5.4v3.6H10.7c-3,0-5.4,2.4-5.4,5.4v7.1c0,3,2.4,5.4,5.4,5.4v42.9h-5.4c-3,0-5.4,2.4-5.4,5.4v3.6c0,3,2.4,5.4,5.4,5.4h89.3c3,0,5.4-2.4,5.4-5.4v-3.6c0-3-2.4-5.4-5.4-5.4ZM25,12.5v-3.6c0-3,2.4-5.4,5.4-5.4h39.3c3,0,5.4,2.4,5.4,5.4v3.6c0,3-2.4,5.4-5.4,5.4H30.4c-3,0-5.4-2.4-5.4-5.4ZM8.9,37.5v-7.1c0-1,.8-1.8,1.8-1.8h78.6c1,0,1.8.8,1.8,1.8v7.1c0,1-.8,1.8-1.8,1.8H10.7c-1,0-1.8-.8-1.8-1.8ZM14.3,50h71.4v35.7h-3.6v-26.8c0-3-2.4-5.4-5.4-5.4h-17.9c-3,0-5.4,2.4-5.4,5.4v26.8H14.3s0-35.7,0-35.7ZM57.1,85.7v-21.4h8.9v21.4h-8.9ZM69.6,64.3h8.9v21.4h-8.9v-21.4ZM96.4,94.6c0,1-.8,1.8-1.8,1.8H5.4c-1,0-1.8-.8-1.8-1.8v-3.6c0-1,.8-1.8,1.8-1.8h89.3c1,0,1.8.8,1.8,1.8v3.6h-.1ZM44.6,53.6h-21.4c-3,0-5.4,2.4-5.4,5.4v17.9c0,3,2.4,5.4,5.4,5.4h21.4c3,0,5.4-2.4,5.4-5.4v-17.9c0-3-2.4-5.4-5.4-5.4ZM40.2,66.6c.7.7.7,1.8,0,2.5l-5.1,5.1c-.3.3-.8.5-1.3.5s-.9-.2-1.3-.5c-.7-.7-.7-1.8,0-2.5l5.1-5.1c.7-.7,1.8-.7,2.5,0h0ZM35.2,64.1l-5.1,5.1c-.3.3-.8.5-1.3.5s-.9-.2-1.3-.5c-.7-.7-.7-1.8,0-2.5l5.1-5.1c.7-.7,1.8-.7,2.5,0s.7,1.8,0,2.5h0Z"></path></svg> 