<?xml version="1.0" encoding="UTF-8"?> <svg xmlns="http://www.w3.org/2000/svg" width="400" height="400" viewBox="0 0 400 400" fill="none"><g clip-path="url(#clip0_1189_279)"><path d="M11.7188 0C5.24292 0 0 5.24292 0 11.7188C0 18.1946 5.24292 23.4375 11.7188 23.4375C31.1035 23.4375 46.875 39.209 46.875 58.5938V189.062H35.1562C28.6804 189.062 23.4375 194.305 23.4375 200.781V282.812H58.5938C65.0696 282.812 70.3125 288.055 70.3125 294.531C70.3125 301.007 65.0696 306.25 58.5938 306.25H23.4375V329.688H375.967C375.354 321.667 373.965 313.876 372.156 306.25H317.969C285.663 306.25 259.375 279.962 259.375 247.656C259.375 241.18 264.618 235.938 271.094 235.938H333.74C307.156 208.282 270.316 190.71 229.34 189.331L193.915 153.906L209.067 138.754C213.644 134.177 213.644 126.761 209.067 122.183C204.489 117.606 197.073 117.606 192.496 122.183L145.621 169.058C141.043 173.636 141.043 181.052 145.621 185.629C150.198 190.207 157.614 190.207 162.192 185.629L177.344 170.477L212.5 205.634V247.656C212.5 254.123 207.248 259.375 200.781 259.375H166.449C162.524 259.375 158.875 257.431 156.699 254.156L123.74 204.718C117.206 194.91 106.265 189.062 94.4885 189.062H70.3125V58.5938C70.3125 26.2878 44.0247 0 11.7188 0Z" fill="#183961"></path><path d="M317.969 282.812H364.536C361.105 274.615 357.019 266.776 352.271 259.375H284.814C289.658 273.016 302.692 282.812 317.969 282.812Z" fill="#183961"></path><path d="M376.562 353.125H23.4375C10.4919 353.125 0 363.617 0 376.562C0 389.505 10.4919 400 23.4375 400H376.562C389.508 400 400 389.505 400 376.562C400 363.617 389.508 353.125 376.562 353.125Z" fill="#808080"></path></g><defs><clipPath id="clip0_1189_279"><rect width="400" height="400" fill="white"></rect></clipPath></defs></svg> 