<?xml version="1.0" encoding="UTF-8"?> <svg xmlns="http://www.w3.org/2000/svg" id="Layer_1" version="1.1" viewBox="0 0 100 100"><defs><style> .st0 { fill: #fff; } </style></defs><path class="st0" d="M68.8,42.5c-10.4-10.4-27.3-10.4-37.7,0-10.4,10.4-10.4,27.3,0,37.7,10.4,10.4,27.3,10.4,37.7,0s10.4-27.3,0-37.7h0ZM38.3,88.9c-4.1-1.8-7.8-4.4-10.8-7.8l-6.7,11.7,6.9-1.1c.6,0,1.2,0,1.6.6l4.2,5.1,4.9-8.5h-.1ZM72.5,81.1c-3,3.3-6.6,6-10.8,7.8l4.9,8.5,4.2-5.1c.4-.5,1-.7,1.6-.6l6.9,1.1-6.7-11.7h0ZM60.6,50.7c-5.9-5.9-15.4-5.9-21.2,0-5.9,5.9-5.9,15.4,0,21.2,5.9,5.9,15.4,5.9,21.2,0,5.9-5.9,5.9-15.4,0-21.2ZM50,43c10.1,0,18.3,8.2,18.3,18.3s-8.2,18.3-18.3,18.3-18.3-8.2-18.3-18.3,8.2-18.3,18.3-18.3h0ZM41.5,62.6c-.5-.8-.2-1.8.6-2.2s1.8-.2,2.2.6l2.6,4.5,9-9c.6-.6,1.7-.6,2.3,0s.6,1.7,0,2.3l-10.5,10.5c-.8.8-2,.6-2.6-.3l-3.7-6.4h.1ZM88,19l3.3,6.7,7.4,1c1.3.2,1.7,1.7.8,2.6l-5.4,5.2,1.3,7.4c.2,1.3-1.1,2.2-2.2,1.6l-6.6-3.5-6.6,3.5c-1.1.6-2.5-.3-2.2-1.7l1.3-7.3-5.4-5.2c-.9-.9-.4-2.4.9-2.6l7.4-1,3.3-6.7c.5-1.1,2.2-1.1,2.7,0h0ZM14.7,19l3.3,6.7,7.4,1c1.3.2,1.7,1.7.8,2.6l-5.4,5.2,1.3,7.4c.2,1.3-1.1,2.2-2.2,1.6l-6.6-3.5-6.6,3.5c-1.1.6-2.5-.3-2.2-1.7l1.3-7.3L.5,29.4c-.9-.9-.4-2.4.9-2.6l7.4-1,3.3-6.7c.5-1.1,2.2-1.1,2.7,0h-.1ZM51.3,3.4l3.3,6.7,7.4,1c1.3.2,1.7,1.7.8,2.6l-5.4,5.2,1.3,7.4c.2,1.3-1.1,2.2-2.2,1.6l-6.6-3.6-6.6,3.5c-1.1.6-2.5-.3-2.2-1.7l1.3-7.3-5.4-5.2c-.9-.9-.4-2.4.9-2.6l7.4-1,3.3-6.7c.6-1.1,2.2-1.1,2.7,0h0Z"></path></svg> 