<?xml version="1.0" encoding="UTF-8"?> <svg xmlns="http://www.w3.org/2000/svg" width="400" height="400" viewBox="0 0 400 400" fill="none"><g clip-path="url(#clip0_1216_6366)"><path d="M199.961 89.4103C171.618 89.4103 143.275 100.198 121.697 121.776C100.792 142.682 89.2798 170.476 89.2798 200.04C89.2798 229.604 100.792 257.398 121.697 278.303C164.853 321.458 235.07 321.459 278.225 278.303C299.13 257.398 310.643 229.604 310.643 200.04C310.643 170.475 299.13 142.682 278.225 121.776C256.647 100.198 228.303 89.4103 199.961 89.4103ZM233.974 234.047C215.219 252.802 184.703 252.802 165.949 234.047C147.197 215.295 147.197 184.782 165.948 166.032C175.327 156.656 187.643 151.97 199.962 151.97C212.278 151.97 224.598 156.658 233.974 166.03C252.725 184.783 252.725 215.295 233.974 234.047Z" fill="#808080"></path><path d="M400 67.8027L332.198 0L295.775 36.4235C267.027 19.5235 234.189 10.5014 199.961 10.5014C149.331 10.5014 101.733 30.2171 65.9334 66.0162C30.1343 101.815 10.4186 149.412 10.4186 200.039C10.4186 234.267 19.4422 267.106 36.3438 295.854L0 332.198L67.8019 400L104.147 363.654C132.895 380.553 165.733 389.576 199.961 389.576C250.591 389.576 298.189 369.86 333.988 334.061C369.788 298.262 389.503 250.665 389.503 200.038C389.503 165.81 380.479 132.973 363.577 104.224L400 67.8027ZM332.198 33.1554L366.845 67.8027L350.201 84.4472C345.232 78.0165 339.828 71.8569 333.988 66.0162C328.146 60.1747 321.985 54.7693 315.553 49.7999L332.198 33.1554ZM334.086 200.04C334.086 235.866 320.134 269.548 294.801 294.881C268.653 321.029 234.307 334.103 199.96 334.103C165.614 334.103 131.267 321.029 105.119 294.881C79.7865 269.548 65.8341 235.866 65.8341 200.04C65.8341 164.214 79.7857 130.531 105.119 105.199C157.415 52.9032 242.506 52.9032 294.802 105.199C320.135 130.531 334.086 164.213 334.086 200.04ZM67.8019 366.845L33.1554 332.199L49.721 315.633C54.6896 322.062 60.0935 328.222 65.9334 334.063C71.7749 339.904 77.936 345.31 84.3683 350.279L67.8019 366.845Z" fill="#183961"></path></g><defs><clipPath id="clip0_1216_6366"><rect width="400" height="400" fill="white"></rect></clipPath></defs></svg> 