<?xml version="1.0" encoding="UTF-8"?> <svg xmlns="http://www.w3.org/2000/svg" id="Layer_1" version="1.1" viewBox="0 0 100 100"><defs><style> .st0 { fill: #fff; fill-rule: evenodd; } </style></defs><path class="st0" d="M0,8.2v33.8c0,18.5,15.7,36.6,34.3,39.7,4.2-.7,8.4-2.2,12.4-4.4l.2-.3c-2.4-1.2-5.1-2-7.1-4-1.7.7-3.4,1.2-5.1,1.6h-.8c-6.9-1.5-13.8-5.9-18.8-11.9-5.3-6.2-8.1-13.5-8.1-20.7V15.4c0-.9.6-1.6,1.5-1.8l25.5-5.4h.8l25.5,5.4c.9.2,1.5.9,1.5,1.8v8.3c2.4.4,4.6,1.5,6.9,2.2V8.2L34.3,1,0,8.2ZM89.9,82.3c-1.5,3.2-3.2,6.7-7.5,7.5l5.3,9.2,2.9-5.8c.3-.7,1-1.1,1.8-1l6.5.4-7.6-13.2c-.5.9-1,1.9-1.4,2.9h0ZM57,89.3c.6.2,1.1.4,1.6.5l-5.3,9.2-2.9-5.8c-.3-.7-1-1.1-1.8-1l-6.5.4,7.6-13.2c2,3.5,2.8,8.1,7.3,9.9h0ZM70.5,40.3c9.1,0,16.4,7.4,16.4,16.4s-7.4,16.4-16.4,16.4-16.4-7.4-16.4-16.4,7.4-16.4,16.4-16.4ZM67.5,60.2l10.8-10.8c.7-.7,1.9-.7,2.6,0s.7,1.9,0,2.6l-12.1,12.1c-.7.7-1.9.7-2.6,0l-6-6.1c-.7-.7-.7-1.9,0-2.6.7-.7,1.9-.7,2.6,0l4.7,4.7h0ZM51.5,38c0,0,.2-.2.3-.3,3-3.8,3.3-8.7,6.7-10.1s6.9,1.8,11.9,2.4h.4c4.9-.6,8.5-3.8,11.9-2.4s3.6,6.3,6.7,10.1c0,0,.2.2.3.3,3.8,3,8.7,3.3,10.1,6.7,1.4,3.3-1.8,7-2.4,11.9v.4c.6,4.9,3.8,8.5,2.4,11.9s-6.3,3.7-10.1,6.7c0,0-.2.2-.3.3-3.1,3.9-3.3,8.7-6.7,10.1-3.3,1.4-7-1.8-11.9-2.4h-.4c-4.9.6-8.5,3.8-11.9,2.4-3.3-1.4-3.6-6.2-6.7-10.1,0,0-.2-.2-.3-.3-3.7-3-8.7-3.3-10.1-6.7-1.4-3.3,1.9-7,2.4-11.9v-.4c-.6-4.9-3.8-8.5-2.4-11.9,1.4-3.3,6.3-3.6,10.1-6.7h0ZM50.4,56.7c0-11.1,9-20.1,20.1-20.1s20.1,9,20.1,20.1-9,20.1-20.1,20.1-20.1-9-20.1-20.1ZM10.6,16.9l23.7-5,23.7,5v7c-3.9,1.1-5.5,4.3-6.9,7.4-.7,1.5-1.3,2.8-2.2,4-1.2.9-2.6,1.6-4,2.2-2.6,1.2-5.6,2.5-7,5.9-1.4,3.3-.2,6.4.8,9.1.6,1.5,1.1,2.9,1.3,4.4-.2,1.5-.8,3-1.3,4.4-1,2.6-2.1,5.5-1,8.6-1.1.5-2.3.8-3.5,1.1-12.9-3.1-23.7-16.2-23.7-28.8v-25.2h.1Z"></path></svg> 