<?xml version="1.0" encoding="UTF-8"?> <svg xmlns="http://www.w3.org/2000/svg" width="512" height="512" viewBox="0 0 512 512" fill="none"><g clip-path="url(#clip0_1186_198)"><path fill-rule="evenodd" clip-rule="evenodd" d="M205.282 207.177L146.306 404.179H39.6792L72.3828 288.351C87.2081 235.841 17.5878 241.678 51.3934 207.152L205.282 207.177Z" fill="#183961"></path><path fill-rule="evenodd" clip-rule="evenodd" d="M476.554 170.389L466.229 187.119C464.43 190.034 461.602 192.909 457.829 192.909L305.279 192.917L298.385 208.608L44.5975 208.599C40.8227 208.599 38.1971 205.445 36.1974 202.809L11.5962 170.389H476.554Z" fill="#183961"></path><path fill-rule="evenodd" clip-rule="evenodd" d="M25.8627 79.1683H482.097V161.406H9.46419C5.35749 161.406 -1.50001 156.887 0.292906 151.319C3.54567 141.211 17.439 86.7357 17.7815 85.9432C19.6619 81.5931 22.5331 79.1683 25.8627 79.1683ZM51.1702 99.3664V141.208H42.1879V99.3664H51.1702ZM78.6298 99.3664V141.208H69.6475V99.3664H78.6298ZM106.088 99.3664V141.208H97.1058V99.3664H106.088ZM133.548 99.3664V141.208H124.564V99.3664H133.548ZM161.006 99.3664V141.208H152.024V99.3664H161.006ZM400.337 88.1506V102.534C400.337 110.445 393.865 116.916 385.954 116.916H212.123C204.212 116.916 197.741 110.445 197.741 102.534V88.1506H400.337Z" fill="#183961"></path><path fill-rule="evenodd" clip-rule="evenodd" d="M401.536 253.588C433.481 259.197 458.68 284.394 464.289 316.34H434.627C430.024 300.407 417.468 287.852 401.536 283.249V253.588ZM374.588 283.249C358.656 287.851 346.101 300.408 341.498 316.34H311.837C317.445 284.394 342.642 259.195 374.588 253.587V283.249ZM341.498 343.287C346.1 359.22 358.657 371.776 374.588 376.378V406.039C342.642 400.432 317.444 375.234 311.834 343.287H341.498ZM401.536 376.378C417.468 371.776 430.024 359.22 434.627 343.287H464.289C458.68 375.234 433.481 400.432 401.536 406.039V376.378Z" fill="#808080"></path><path d="M388.064 352.135C400.393 352.135 410.387 342.141 410.387 329.812C410.387 317.483 400.393 307.489 388.064 307.489C375.736 307.489 365.741 317.483 365.741 329.812C365.741 342.141 375.736 352.135 388.064 352.135Z" fill="#183961"></path><path d="M392.554 349.345V423.849H383.57V349.345H392.554Z" fill="#808080"></path><path d="M482.097 334.305H407.593V325.323H482.097V334.305Z" fill="#808080"></path><path d="M368.531 334.305H294.027V325.323H368.531V334.305Z" fill="#808080"></path><path d="M392.554 235.778V310.282H383.57V235.778H392.554Z" fill="#808080"></path><path fill-rule="evenodd" clip-rule="evenodd" d="M512.001 130.748V109.826C512.001 101.556 505.235 94.7897 496.963 94.7897H491.079V145.785H496.963C505.235 145.785 512.001 139.019 512.001 130.748Z" fill="#183961"></path><path fill-rule="evenodd" clip-rule="evenodd" d="M146.306 413.161H39.6792V432.832H146.306V413.161Z" fill="#183961"></path><path fill-rule="evenodd" clip-rule="evenodd" d="M239.92 312.373C270.085 312.377 298.385 290.179 298.385 258.763V207.204H276.81V258.754C276.81 276.727 259.909 291.443 239.266 291.443H178.895L172.585 312.365L239.92 312.373Z" fill="#183961"></path><path fill-rule="evenodd" clip-rule="evenodd" d="M244.483 265.477C239.438 240.316 248.879 214.413 250.847 207.203L223.172 207.201C216.317 238.902 238.966 268.057 244.483 265.477Z" fill="#183961"></path></g><defs><clipPath id="clip0_1186_198"><rect width="512" height="512" fill="white"></rect></clipPath></defs></svg> 