<?xml version="1.0" encoding="UTF-8"?> <svg xmlns="http://www.w3.org/2000/svg" id="Layer_1" version="1.1" viewBox="0 0 400 400"><defs><style> .st0 { fill: #183961; } .st1 { fill: gray; } </style></defs><path class="st1" d="M122.6,273.5c-12.7,33.6-45.4,56.2-81.2,56.2H11.7c-6.5,0-11.7,5.2-11.7,11.7v46.9c0,6.5,5.2,11.7,11.7,11.7h29.7c32,0,62.9-9.7,89.3-28,26.3-18.3,46.3-43.7,57.6-73.6,6.1-16.1,17.2-28.7,31.2-36.2v-74.6c-16.5,3.9-32.1,10.8-46.2,20.5-23.1,15.9-40.6,38.5-50.8,65.5h0Z"></path><path class="st0" d="M354.4,160.7c-7.5,7.4-17.8,11.9-29,11.9s-21.5-4.5-29-11.9c-7.5,7.4-17.8,11.9-29,11.9s-11.5-1.2-16.6-3.5v154.6h149.2v-154.6c-5.2,2.3-10.8,3.5-16.6,3.5-11.2,0-21.5-4.5-29-11.9h0Z"></path><path class="st0" d="M250.8,110.9v28.3c.7.6,1.3,1.3,1.9,2.1,3.3,4.9,8.8,7.9,14.7,7.9,8.6,0,15.9-6.1,17.5-14.6,1-5.6,5.9-9.6,11.5-9.6s10.5,4,11.5,9.6c1.6,8.4,8.9,14.6,17.5,14.6s15.9-6.1,17.5-14.6c1-5.6,5.9-9.6,11.5-9.6s10.5,4,11.5,9.6c1.6,8.4,8.9,14.6,17.5,14.6s11.5-3,14.8-8c.5-.8,1.1-1.5,1.8-2.1v-28.2h-149.2Z"></path><path class="st0" d="M334.7,4.6c-2.2-2.9-5.7-4.6-9.3-4.6s-7.1,1.7-9.3,4.6l-63.8,82.9h146.2L334.7,4.6Z"></path><path class="st0" d="M250.8,388.3c0,6.5,5.2,11.7,11.7,11.7h125.8c6.5,0,11.7-5.2,11.7-11.7v-41.1h-149.2v41.1Z"></path></svg> 