<?xml version="1.0" encoding="UTF-8"?> <svg xmlns="http://www.w3.org/2000/svg" width="400" height="400" viewBox="0 0 400 400" fill="none"><g clip-path="url(#clip0_1192_346)"><path d="M89.0076 150.595C123.39 150.595 151.36 122.622 151.36 88.2393C151.36 53.86 123.39 25.8896 89.0076 25.8896C54.6283 25.8896 26.658 53.86 26.658 88.2393C26.658 122.622 54.6283 150.595 89.0076 150.595Z" fill="#183961"></path><path d="M63.6256 210.344V322.263C63.6256 329.009 69.115 334.498 75.8615 334.498H102.113C108.863 334.498 114.352 329.009 114.352 322.263V319.024H103.343C101.59 319.024 100.172 317.603 100.172 315.854C100.172 314.101 101.59 312.683 103.343 312.683H114.352V299.209H97.0018C95.2494 299.209 93.8313 297.788 93.8313 296.038C93.8313 294.286 95.2494 292.868 97.0018 292.868H114.352V279.394H103.343C101.59 279.394 100.172 277.973 100.172 276.223C100.172 274.471 101.59 273.053 103.343 273.053H114.352V259.579H97.0018C95.2494 259.579 93.8313 258.157 93.8313 256.408C93.8313 254.656 95.2494 253.238 97.0018 253.238H114.352V239.763H103.343C101.59 239.763 100.172 238.342 100.172 236.593C100.172 234.841 101.59 233.423 103.343 233.423H114.352V219.948H97.0018C95.2494 219.948 93.8313 218.527 93.8313 216.778C93.8313 215.025 95.2494 213.607 97.0018 213.607H114.352V210.344C114.352 203.632 108.891 198.17 102.178 198.17H75.7995C69.0872 198.17 63.6256 203.632 63.6256 210.344Z" fill="#183961"></path><path d="M308.445 360.37H9.60146C4.56717 360.37 0.471008 364.466 0.471008 369.5V390.869C0.471008 395.904 4.56717 400 9.60146 400H308.445C313.445 400 317.513 395.904 317.513 390.869V369.5C317.513 364.466 313.445 360.37 308.445 360.37Z" fill="#183961"></path><path d="M89.0076 176.485C137.666 176.485 177.253 136.898 177.253 88.2394C177.253 39.5839 137.666 0 89.0076 0C40.3521 0 0.765167 39.5839 0.765167 88.2394C0.765167 136.898 40.3521 176.485 89.0076 176.485ZM89.0076 19.5489C126.886 19.5489 157.701 50.3645 157.701 88.2394C157.701 126.117 126.886 156.936 89.0076 156.936C51.1328 156.936 20.3172 126.117 20.3172 88.2394C20.3172 50.3645 51.1328 19.5489 89.0076 19.5489Z" fill="#183961"></path><path d="M288.178 330.25C288.178 321.055 280.725 313.575 271.567 313.575H204.988C195.827 313.575 188.374 321.055 188.374 330.25V354.029H288.178V330.25Z" fill="#808080"></path><path d="M28.7758 161.106V354.029H149.252V161.097C132.878 174.658 111.88 182.826 89.0076 182.826C66.1397 182.826 45.148 174.664 28.7758 161.106ZM120.693 210.344V216.347C120.715 216.493 120.78 216.623 120.78 216.778C120.78 216.929 120.715 217.06 120.693 217.205V236.163C120.715 236.308 120.78 236.438 120.78 236.593C120.78 236.745 120.715 236.875 120.693 237.02V255.978C120.715 256.123 120.78 256.253 120.78 256.408C120.78 256.56 120.715 256.69 120.693 256.835V275.793C120.715 275.938 120.78 276.068 120.78 276.223C120.78 276.375 120.715 276.505 120.693 276.65V295.608C120.715 295.754 120.78 295.884 120.78 296.038C120.78 296.19 120.715 296.32 120.693 296.466V315.423C120.715 315.569 120.78 315.699 120.78 315.854C120.78 316.005 120.715 316.135 120.693 316.281V322.262C120.693 332.504 112.359 340.839 102.114 340.839H75.8615C65.6196 340.839 57.2848 332.504 57.2848 322.262V210.344C57.2848 200.133 65.5917 191.829 75.7996 191.829H102.179C112.386 191.829 120.693 200.133 120.693 210.344Z" fill="#183961"></path><path d="M213.091 164.07L218.314 167.203L235.863 137.963L230.621 134.817C227.961 133.251 224.921 132.415 221.853 132.415C215.837 132.415 210.382 135.495 207.255 140.657C202.406 148.7 205.025 159.209 213.091 164.07Z" fill="#808080"></path><path d="M210.679 220.982L256.056 248.216C259.449 250.253 263.427 250.838 267.264 249.878C271.093 248.915 274.32 246.525 276.348 243.144L330.579 152.787C334.777 145.796 332.502 136.693 325.511 132.495L280.134 105.262C277.759 103.834 275.137 103.156 272.549 103.156C267.52 103.156 262.613 105.714 259.842 110.333L205.611 200.69C201.412 207.681 203.688 216.787 210.679 220.982Z" fill="#808080"></path><path d="M391.244 231.268L317.458 186.971L299.937 216.162L373.764 260.445C377.671 262.798 382.247 263.492 386.644 262.387C391.046 261.288 394.771 258.526 397.127 254.619C401.935 246.55 399.297 236.07 391.244 231.268Z" fill="#808080"></path></g><defs><clipPath id="clip0_1192_346"><rect width="400" height="400" fill="white"></rect></clipPath></defs></svg> 