<?xml version="1.0" encoding="UTF-8"?> <svg xmlns="http://www.w3.org/2000/svg" width="400" height="400" viewBox="0 0 400 400" fill="none"><path d="M40.625 221.875C137.305 221.875 233.984 221.875 333.594 221.875C342.408 238.622 342.408 238.622 345.703 245.654C349.371 253.396 353.177 261.06 357.03 268.711C362.231 279.041 367.255 289.392 371.875 300C362.594 300 353.312 300 343.75 300C342.461 296.133 341.172 292.266 339.844 288.281C332.753 273.454 321.904 264.079 306.619 258.34C292.197 253.877 277.209 255.461 263.865 262.302C249.744 269.907 241.273 281.78 236.676 296.909C235.938 299.219 235.938 299.219 235.156 300C233.455 300.074 231.751 300.092 230.047 300.089C229.514 300.089 228.98 300.089 228.431 300.089C226.659 300.088 224.888 300.082 223.117 300.076C221.892 300.075 220.667 300.074 219.442 300.073C216.212 300.07 212.982 300.062 209.752 300.054C206.458 300.046 203.164 300.042 199.87 300.038C193.403 300.03 186.936 300.016 180.469 300C180.095 299.006 179.722 298.013 179.349 297.019C179.141 296.466 178.933 295.912 178.719 295.342C178.236 294.046 177.761 292.746 177.289 291.446C171.744 277.051 161.915 267.022 148.096 260.352C134.793 254.698 119.822 254.248 106.25 259.375C91.6923 265.315 81.6439 275.233 75.2258 289.532C73.9265 292.958 72.9277 296.491 71.875 300C61.5625 300 51.25 300 40.625 300C40.625 274.219 40.625 248.438 40.625 221.875Z" fill="#12325B"></path><path d="M40.625 90.625C89.3516 90.625 138.078 90.625 188.281 90.625C188.281 130.07 188.281 169.516 188.281 210.156C139.555 210.156 90.8281 210.156 40.625 210.156C40.625 170.711 40.625 131.266 40.625 90.625ZM74.2157 124.313C68.8098 130.677 65.5681 139.084 65.4867 147.433C65.4767 148.33 65.4667 149.227 65.4563 150.151C65.4506 151.116 65.4448 152.082 65.4388 153.076C65.4325 154.07 65.4262 155.064 65.4197 156.088C65.4089 158.19 65.4003 160.291 65.3944 162.392C65.3857 165.083 65.3588 167.772 65.3279 170.462C65.3025 173.033 65.299 175.603 65.2924 178.174C65.2787 179.139 65.265 180.104 65.2509 181.099C65.2532 181.996 65.2555 182.892 65.2578 183.817C65.2533 184.605 65.2487 185.394 65.2439 186.206C65.5039 188.333 65.5039 188.333 66.7521 190.097C69.7757 192.079 72.5395 191.849 76.0834 191.823C76.8256 191.83 77.5678 191.836 78.3324 191.843C80.7863 191.861 83.2395 191.856 85.6934 191.849C87.398 191.853 89.1026 191.858 90.8072 191.863C94.3799 191.872 97.9524 191.868 101.525 191.857C106.107 191.843 110.688 191.862 115.27 191.889C118.79 191.906 122.31 191.905 125.83 191.899C127.52 191.898 129.209 191.903 130.899 191.915C133.259 191.928 135.619 191.917 137.979 191.899C138.679 191.908 139.379 191.918 140.1 191.927C144.067 191.867 144.067 191.867 147.309 189.683C148.524 187.334 148.829 185.959 148.829 183.333C148.84 182.112 148.84 182.112 148.852 180.866C148.843 179.993 148.834 179.119 148.825 178.22C148.827 176.857 148.827 176.857 148.829 175.466C148.827 173.543 148.818 171.619 148.802 169.696C148.78 166.778 148.786 163.86 148.796 160.942C148.791 159.068 148.785 157.193 148.776 155.319C148.779 154.457 148.781 153.595 148.783 152.707C148.632 140.051 144.634 129.149 135.815 119.958C130.234 114.96 123.723 111.121 116.406 109.375C115.681 109.198 114.956 109.021 114.209 108.838C97.6984 107.219 85.5098 112.359 74.2157 124.313Z" fill="#12325B"></path><path d="M150.781 274.219C159.769 281.345 167.152 290.233 169.312 301.797C170.772 315.81 168.505 328.266 159.619 339.648C152.694 347.013 142.974 353.207 132.675 354.044C117.178 354.448 105.619 351.871 94.0034 341.003C86.1538 332.613 82.1131 321.825 82.0039 310.41C82.533 297.776 86.9995 287.652 95.6086 278.433C101.053 273.459 107.643 269.67 114.844 267.969C115.408 267.828 115.972 267.687 116.553 267.541C128.428 265.628 140.792 267.196 150.781 274.219Z" fill="#12325B"></path><path d="M289.307 266.944C289.96 266.948 290.614 266.952 291.287 266.957C296.321 267.055 300.77 267.632 305.469 269.531C306.218 269.828 306.967 270.124 307.739 270.429C318.268 275.123 326.107 283.108 330.469 293.75C334.611 305.32 334.949 316.981 330.124 328.461C323.891 340.752 314.554 348.678 301.563 353.125C292.316 355.672 280.453 354.859 271.875 350.781C271.159 350.468 270.443 350.155 269.705 349.832C259.131 344.716 251.625 335.303 247.754 324.317C244.249 313.002 245.613 301.158 250.488 290.528C255.929 280.251 264.902 272.702 275.781 268.75C280.379 267.383 284.52 266.91 289.307 266.944Z" fill="#12325B"></path><path d="M25 46.0938C84.0391 46.0938 143.078 46.0938 203.906 46.0938C203.906 56.9219 203.906 67.75 203.906 78.9062C144.867 78.9062 85.8281 78.9062 25 78.9062C25 68.0781 25 57.25 25 46.0938Z" fill="#12325B"></path><path d="M122.934 124.469C130.348 129.718 134.803 136.443 136.719 145.313C136.784 146.481 136.811 147.653 136.808 148.823C136.807 149.521 136.807 150.218 136.807 150.937C136.803 151.663 136.799 152.389 136.795 153.137C136.794 153.81 136.794 154.483 136.793 155.176C136.789 157.682 136.778 160.189 136.768 162.696C136.752 168.303 136.735 173.91 136.719 179.688C117.125 179.688 97.5314 179.688 77.3439 179.688C77.2794 173.935 77.215 168.183 77.1485 162.256C77.1201 160.458 77.0916 158.66 77.0623 156.808C77.0532 155.355 77.0452 153.903 77.0387 152.451C77.0227 151.719 77.0067 150.987 76.9902 150.233C76.986 142.037 79.6294 135.289 84.9488 129.083C95.2237 118.986 110.477 117.487 122.934 124.469Z" fill="#12325B"></path><path d="M278.125 152.344C285.344 152.344 292.562 152.344 300 152.344C300 171.422 300 190.5 300 210.156C292.781 210.156 285.563 210.156 278.125 210.156C278.125 191.078 278.125 172 278.125 152.344Z" fill="#12325B"></path><path d="M266.406 128.906C281.102 128.906 295.797 128.906 310.938 128.906C310.938 132.773 310.938 136.641 310.938 140.625C296.242 140.625 281.547 140.625 266.406 140.625C266.406 136.758 266.406 132.891 266.406 128.906Z" fill="#12325B"></path></svg> 