<?xml version="1.0" encoding="UTF-8"?> <svg xmlns="http://www.w3.org/2000/svg" width="400" height="400" viewBox="0 0 400 400" fill="none"><g clip-path="url(#clip0_1189_251)"><path d="M387.836 320.228C387.836 300.615 305.122 284.716 203.089 284.716C101.056 284.716 18.3418 300.615 18.3418 320.228C18.3418 328.829 34.2554 336.716 60.7293 342.862L41.4156 380.335C38.0039 386.955 40.6047 395.087 47.2243 398.5C53.8471 401.913 61.9785 399.308 65.3895 392.691L88.3883 348.067C119.899 352.871 159.747 355.74 203.088 355.74C246.429 355.74 286.277 352.87 317.788 348.067L340.787 392.691C344.198 399.312 352.331 401.911 358.952 398.5C365.572 395.088 368.172 386.956 364.76 380.335L345.447 342.862C371.922 336.716 387.836 328.829 387.836 320.228Z" fill="#808080"></path><path d="M369.06 149.12L261.082 134.913C256.305 134.284 251.473 135.57 247.64 138.489L190.203 182.227L238.762 125.729C243.985 119.653 251.937 116.647 259.874 117.749L281.319 120.729L344.262 92.0712C354.656 87.3391 359.245 75.0771 354.513 64.6848C349.781 54.2924 337.519 49.7017 327.126 54.4346C324.615 55.5776 227.499 99.7955 224.583 101.124C221.075 102.73 218.143 105.617 216.555 109.465L204.753 138.081C197.261 120.228 197.478 120.741 189.964 102.835L202.602 103.685C204.847 96.9025 208.456 91.7055 215.366 88.5274C223.005 85.05 278.011 60.005 285.635 56.5338C292.707 49.8001 292.199 39.9382 286.52 33.9717C280.53 27.6779 270.571 27.4318 264.277 33.4217L222.2 73.4701L165.319 69.8216C159.77 69.4653 154.212 70.3856 149.075 72.5122L81.4437 100.498L39.5977 53.9494C33.789 47.4868 23.8419 46.9594 17.3793 52.7666C10.9175 58.5753 10.3878 68.5223 16.1965 74.9849L65.4802 129.809C69.9357 134.765 77.0327 136.38 83.2016 133.826L154.374 103.849C151.622 105.86 127.734 123.312 124.423 125.73C124.544 126.018 140.45 164.009 155.666 200.352C160.373 211.596 170.062 219.994 181.856 223.067C193.652 226.141 206.22 223.544 215.812 216.023L265.374 177.168L363.656 190.12C374.977 191.614 385.365 183.643 386.858 172.321C388.351 161 380.382 150.611 369.06 149.12Z" fill="#183961"></path><path d="M134.668 65.984C152.889 65.984 167.66 51.213 167.66 32.992C167.66 14.771 152.889 0 134.668 0C116.447 0 101.676 14.771 101.676 32.992C101.676 51.213 116.447 65.984 134.668 65.984Z" fill="#183961"></path></g><defs><clipPath id="clip0_1189_251"><rect width="400" height="400" fill="white"></rect></clipPath></defs></svg> 