<?xml version="1.0" encoding="UTF-8"?> <svg xmlns="http://www.w3.org/2000/svg" width="50" height="50" viewBox="0 0 50 50" fill="none"><g clip-path="url(#clip0_319_339)"><path d="M25 50C38.8071 50 50 38.8071 50 25C50 11.1929 38.8071 0 25 0C11.1929 0 0 11.1929 0 25C0 38.8071 11.1929 50 25 50Z" fill="#29A71A"></path><path d="M36.0227 13.9773C33.4217 11.3503 29.9675 9.73929 26.2833 9.43479C22.599 9.13028 18.9272 10.1524 15.9301 12.3167C12.9331 14.481 10.8081 17.645 9.93848 21.2381C9.06885 24.8312 9.51182 28.6168 11.1875 31.912L9.54261 39.8978C9.52555 39.9773 9.52506 40.0594 9.5412 40.1391C9.55733 40.2188 9.58972 40.2943 9.63636 40.3609C9.70469 40.4619 9.80222 40.5397 9.91592 40.5839C10.0296 40.628 10.1541 40.6365 10.2727 40.608L18.0994 38.7529C21.3854 40.3862 25.1443 40.8007 28.7072 39.9226C32.27 39.0446 35.4059 36.931 37.5567 33.9579C39.7075 30.9848 40.7338 27.3451 40.4529 23.6864C40.172 20.0277 38.6022 16.5873 36.0227 13.9773ZM33.5824 33.4546C31.7827 35.2492 29.4653 36.4338 26.9567 36.8416C24.4481 37.2493 21.8748 36.8596 19.5994 35.7273L18.5085 35.1876L13.7102 36.3239L13.7244 36.2643L14.7188 31.4347L14.1847 30.3807C13.022 28.0974 12.6119 25.5047 13.013 22.974C13.4141 20.4434 14.6059 18.1046 16.4176 16.2927C18.6941 14.0169 21.7811 12.7385 25 12.7385C28.2189 12.7385 31.306 14.0169 33.5824 16.2927C33.6018 16.3149 33.6227 16.3358 33.6449 16.3552C35.8931 18.6368 37.1482 21.7146 37.1365 24.9178C37.1248 28.1209 35.8472 31.1895 33.5824 33.4546Z" fill="white"></path><path d="M33.1562 29.912C32.5681 30.8382 31.6391 31.9717 30.4715 32.253C28.426 32.7473 25.2868 32.27 21.3806 28.628L21.3323 28.5853C17.8976 25.4007 17.0056 22.7501 17.2215 20.6478C17.3408 19.4547 18.3351 18.3751 19.1732 17.6706C19.3057 17.5575 19.4628 17.477 19.632 17.4355C19.8012 17.394 19.9777 17.3926 20.1475 17.4316C20.3173 17.4705 20.4756 17.5486 20.6098 17.6597C20.744 17.7707 20.8504 17.9116 20.9204 18.0711L22.1846 20.912C22.2667 21.0963 22.2972 21.2993 22.2726 21.4995C22.2481 21.6997 22.1696 21.8895 22.0454 22.0484L21.4062 22.878C21.269 23.0492 21.1862 23.2576 21.1685 23.4764C21.1508 23.6951 21.1989 23.9141 21.3067 24.1052C21.6647 24.7331 22.5226 25.6564 23.4743 26.5115C24.5425 27.4774 25.7272 28.3609 26.4772 28.662C26.6779 28.744 26.8985 28.764 27.1107 28.7195C27.3228 28.6749 27.5168 28.5678 27.6675 28.412L28.409 27.6649C28.5521 27.5238 28.73 27.4232 28.9246 27.3733C29.1193 27.3234 29.3237 27.326 29.517 27.3808L32.5198 28.2331C32.6854 28.2839 32.8373 28.3719 32.9637 28.4904C33.0901 28.6089 33.1877 28.7547 33.2491 28.9167C33.3105 29.0787 33.3341 29.2526 33.318 29.4252C33.3019 29.5977 33.2465 29.7642 33.1562 29.912Z" fill="white"></path></g><defs><clipPath id="clip0_319_339"><rect width="50" height="50" fill="white"></rect></clipPath></defs></svg> 