<?xml version="1.0" encoding="UTF-8"?> <svg xmlns="http://www.w3.org/2000/svg" width="400" height="400" viewBox="0 0 400 400" fill="none"><path d="M372.658 54.6073C372.658 49.6094 368.568 45.5203 363.57 45.5203H327.222C322.224 45.5203 318.135 49.6094 318.135 54.6073V72.7814H372.658V54.6073Z" fill="#808080"></path><path d="M84.0514 218.174H311.137L259.068 172.648C252.434 166.832 243.983 163.652 235.169 163.652H104.043C92.9567 163.652 82.5974 168.65 75.6913 177.282L57.3354 200.273C63.6055 200.909 69.4212 203.453 73.8739 207.997L84.0514 218.174Z" fill="#183961"></path><path d="M381.744 90.9554H309.048C299.052 90.9554 290.874 99.1338 290.874 109.13V176.283L338.763 218.174H345.396C367.114 218.174 386.561 227.806 399.919 242.982V109.13C399.919 99.1338 391.74 90.9554 381.744 90.9554ZM371.113 159.563L352.939 186.824C351.212 189.459 348.304 190.913 345.396 190.913C343.67 190.913 341.943 190.459 340.398 189.368C336.218 186.551 335.128 180.917 337.854 176.737L346.578 163.561H327.222C323.86 163.561 320.77 161.743 319.226 158.745C317.681 155.746 317.863 152.202 319.68 149.385L337.854 122.124C340.671 117.944 346.214 116.854 350.485 119.58C354.665 122.397 355.756 128.031 353.029 132.211L344.306 145.387H363.661C367.023 145.387 370.113 147.204 371.658 150.203C373.203 153.202 373.021 156.746 371.203 159.563H371.113Z" fill="#808080"></path><path d="M345.398 236.348H76.5129L60.9741 220.809C59.2475 219.083 56.9758 218.174 54.5223 218.174H18.1741C8.17834 218.174 0 226.352 0 236.348V309.044C0 319.04 8.17834 327.219 18.1741 327.219H37.6204C41.7095 342.848 55.7944 354.48 72.6963 354.48C89.5982 354.48 103.683 342.848 107.772 327.219H273.883C277.973 342.848 292.058 354.48 308.959 354.48C325.861 354.48 339.946 342.848 344.035 327.219H372.569C387.562 327.219 399.83 314.951 399.83 299.957V290.87C399.83 260.792 375.386 236.348 345.308 236.348H345.398ZM72.7872 336.306C62.7915 336.306 54.6131 328.127 54.6131 318.132C54.6131 308.136 62.7915 299.957 72.7872 299.957C82.783 299.957 90.9613 308.136 90.9613 318.132C90.9613 328.127 82.783 336.306 72.7872 336.306ZM309.05 336.306C299.055 336.306 290.876 328.127 290.876 318.132C290.876 308.136 299.055 299.957 309.05 299.957C319.046 299.957 327.224 308.136 327.224 318.132C327.224 328.127 319.046 336.306 309.05 336.306ZM363.027 293.415C358.029 293.415 353.94 289.326 353.94 284.328C353.94 279.33 358.029 275.241 363.027 275.241H376.113C379.202 280.602 381.201 286.781 381.201 293.415H363.027Z" fill="#183961"></path></svg> 