<?xml version="1.0" encoding="UTF-8"?> <svg xmlns="http://www.w3.org/2000/svg" width="400" height="400" viewBox="0 0 400 400" fill="none"><path d="M361.417 222.848C361.517 222.798 361.571 222.771 361.571 222.771C361.571 222.771 351.812 216.022 336.999 215.803C344.346 212.597 360.154 208.287 361.45 202.452C362.961 195.84 355.904 183.631 348.889 173.229C345.239 167.844 309.555 133.97 303.199 129.854C296.8 125.741 294.326 124.193 291.775 126.442C289.22 128.649 281.242 135.634 281.242 135.634L296.824 147.97L311.673 159.669C315.45 163.082 319.894 166.892 321.462 168.84C319.279 167.934 313.567 165.412 310.236 163.936C308.759 163.28 307.74 162.827 307.74 162.827L307.183 162.911L302.731 163.586L288.406 172.613C288.265 172.555 288.123 172.51 287.98 172.493C287.787 172.473 287.519 172.456 287.213 172.442C285.147 168.076 281.978 161.982 279.754 160.491C277.178 158.762 248.815 152.146 230.214 148.984C229.773 146.04 228.987 143.203 227.601 142.195C227.38 140.298 227.19 138.651 227.172 138.54C226.301 133.331 225.835 129.64 225.641 127.964C225.558 125.89 225.31 121.185 224.681 117.966C224.72 117.995 224.743 118.013 224.743 118.013C225.022 114.365 226.549 115.264 228.516 111.982C228.764 111.568 229.029 111.144 229.311 110.723C233.631 114.259 238.555 117.678 240.859 118.501C244.885 119.941 248.323 118.749 251.357 117.555C254.391 116.362 256.423 114.15 256.631 113.141C256.839 112.131 256.653 109.705 256.653 109.705C256.653 109.705 260.93 103.264 264.029 91.7644C264.029 91.7644 265.439 92.1773 265.858 89.5525C266.279 86.9278 266.308 82.0774 264.127 76.0008C261.945 69.9243 248.304 57.1058 233.359 59.2362C218.413 61.3667 213.717 70.2295 211.464 75.6722C210.56 77.8579 210.218 81.3235 211.408 84.767C211.928 86.2692 213.474 89.2805 215.287 92.5335L206.903 96.3304C205.242 94.7592 203.551 93.4006 201.882 92.3927C199.115 90.722 195.63 90.8504 193.004 92.7337C185.066 98.425 167.838 110.908 155.59 121.094C155.59 121.094 144.087 128.326 129.947 145.946C124.986 152.128 123.995 157.278 122.291 158.497C120.824 159.548 113.474 169.279 113.423 178.781C111.642 178.517 110.231 178.243 109.36 177.953C103.272 175.933 101.134 159.708 92.5095 156.846C83.8845 153.983 35.4525 156.842 26.9613 160.317C23.755 161.628 26.0418 167.15 38.3211 175.005C45.9495 179.884 67.9951 192.175 88.7546 202.964L78.8187 221.557C71.7362 219.308 64.1258 218.318 56.2644 218.876C53.0706 219.102 49.9539 219.577 46.9282 220.271L30.8347 210.158C28.563 208.73 25.5649 209.985 24.9832 212.606L20.1903 234.174C6.2183 246.709 -1.81946 265.568 0.351602 285.873C3.79911 318.106 32.6267 342.176 64.906 339.838C92.4612 337.843 114.365 317.659 119.775 291.849L129.357 292.78C128.916 297.801 128.524 302.806 128.606 303.955C128.779 306.424 121.31 321.636 121.31 321.636L275.823 319.521C275.823 319.521 279.702 313.559 278.919 309.225C277.972 303.981 273.794 294.874 274.089 286.645C274.514 274.757 277.298 267.287 281.413 260.98L281.77 260.987C279.509 268.099 278.515 275.744 279.074 283.643C281.49 317.831 311.757 343.387 346.087 339.634C376.602 336.298 400.096 310.043 400 279.296C399.918 253.255 383.749 231.571 361.417 222.848ZM119.44 223.4L115.061 215.508C121.021 218.514 126.324 221.173 130.512 223.269L126.094 240.956L112.214 247.782C108.002 240.88 102.47 234.911 95.9818 230.211L119.44 223.4ZM91.8547 210.46L101.555 215.134L99.2818 223.043L89.4617 226.106C87.7318 225.162 85.9536 224.3 84.1299 223.526L91.8547 210.46ZM60.5349 321.46C39.5548 321.502 21.5164 305.608 18.8573 284.763C17.0212 270.369 22.5985 256.942 32.453 248.058L40.295 251.616C38.2205 253.141 36.3003 254.872 34.5772 256.794C32.4117 259.388 30.6045 262.263 29.2026 265.334C27.8614 268.433 26.9764 271.718 26.5546 275.061C26.2141 278.417 26.363 281.793 26.9185 285.099C27.5761 288.387 28.6526 291.585 30.2117 294.539C31.8203 297.457 33.7736 300.175 36.1087 302.519C38.4962 304.81 41.1649 306.768 44.0444 308.321C46.9709 309.793 50.0766 310.836 53.2484 311.429C56.4381 311.974 59.6692 311.958 62.8162 311.586C59.6389 311.513 56.5098 311.126 53.5075 310.287C50.5287 309.377 47.6739 308.157 45.0728 306.519C42.4937 304.85 40.1517 302.867 38.1171 300.612C36.1431 298.302 34.4642 295.773 33.1602 293.06C31.903 290.32 31.0966 287.417 30.5728 284.477C30.1758 281.51 30.1372 278.507 30.5273 275.557C31.0043 272.624 31.7583 269.737 32.9796 267.025C34.2436 264.34 35.8578 261.832 37.7766 259.572C39.8016 257.288 42.1256 255.282 44.6896 253.623C44.7006 253.621 44.7102 253.621 44.7213 253.62L51.739 256.804C41.2324 260.913 34.4656 272.119 36.8475 284.176C38.991 295.02 48.5368 303.146 59.5658 303.549C70.3343 303.943 79.3563 297.41 82.983 288.273L101.188 290.04C96.5084 307.912 80.3391 321.42 60.5349 321.46ZM138.249 247.851L131.907 252.16L140.412 240.627L138.249 247.851ZM179.646 167.345C178.916 168.384 178.322 169.521 177.84 170.736C174.726 166.881 172.698 164.387 172.698 164.387C172.698 164.387 175.548 161.946 178.757 159.319C185.409 154.498 196.033 147.577 202.817 144.229C203.318 146.054 203.967 148.396 204.64 150.718C195.108 154.862 183.446 161.929 179.646 167.345ZM339.776 321.458C318.563 321.657 300.245 305.495 297.734 284.396C296.636 275.181 298.581 266.379 302.726 258.922L312.624 255.292L313.805 256.474C313.704 256.583 313.596 256.684 313.496 256.794C311.331 259.388 309.524 262.263 308.122 265.334C306.78 268.433 305.895 271.718 305.474 275.061C305.133 278.417 305.283 281.793 305.838 285.099C306.495 288.387 307.572 291.585 309.131 294.539C310.739 297.457 312.693 300.175 315.028 302.519C317.415 304.81 320.084 306.768 322.963 308.321C325.89 309.793 328.996 310.836 332.167 311.429C335.357 311.974 338.588 311.958 341.735 311.586C338.558 311.513 335.429 311.126 332.427 310.287C329.448 309.377 326.593 308.157 323.992 306.519C321.413 304.85 319.071 302.867 317.036 300.612C315.062 298.302 313.383 295.773 312.079 293.06C310.822 290.32 310.016 287.417 309.492 284.477C309.095 281.51 309.056 278.507 309.446 275.557C309.923 272.624 310.677 269.737 311.899 267.025C313.183 264.297 314.828 261.752 316.788 259.464C316.792 259.464 316.794 259.464 316.799 259.464L321.038 263.703C316.449 269.121 314.21 276.545 315.798 284.325C317.994 295.081 327.471 303.122 338.423 303.548C353.073 304.118 364.572 291.885 363.566 277.648C362.642 264.573 351.509 254.687 338.525 255.195C338.151 253.333 337.729 251.19 337.332 249.087C338.317 248.997 339.305 248.934 340.296 248.925C343.275 249.03 346.257 249.425 349.142 250.283C352.006 251.194 354.744 252.499 357.303 254.133C359.819 255.832 362.11 257.874 364.121 260.196C366.106 262.545 367.716 265.203 369.036 268.028C370.289 270.886 371.113 273.933 371.634 277.074C371.559 273.901 371.123 270.694 370.134 267.606C369.1 264.544 367.634 261.61 365.766 258.915C363.824 256.279 361.513 253.907 358.912 251.861C356.263 249.877 353.305 248.321 350.191 247.136C347.052 246.002 343.738 245.392 340.394 245.202C339.142 245.17 337.891 245.217 336.641 245.304C336.238 243.009 335.936 241.061 335.862 240.02C335.79 239.01 335.949 238.15 336.293 237.383C336.296 237.381 336.299 237.38 336.3 237.377C359.532 235.626 379.735 253.127 381.378 276.381C383.082 300.456 364.233 321.229 339.776 321.458Z" fill="#12325B"></path></svg> 