<?xml version="1.0" encoding="UTF-8"?> <svg xmlns="http://www.w3.org/2000/svg" width="400" height="400" viewBox="0 0 400 400" fill="none"><g clip-path="url(#clip0_1186_230)"><path d="M388.984 32.3587C393.175 40.5458 393.857 50.9747 390.641 61.0137C389.861 63.4503 388.984 65.692 387.814 67.7388C383.428 75.9259 380.017 83.2359 377.19 90.0585L350.192 100.195L333.818 75.9259C335.475 68.7135 336.839 60.8187 338.106 51.9493C338.496 49.3177 339.081 46.9786 339.763 44.8343C342.59 35.9649 347.95 28.655 354.968 24.0741C361.596 19.6881 368.906 18.4211 375.533 20.5653C381.284 22.3197 385.865 26.4133 388.984 32.3587Z" fill="#183961"></path><path d="M349.997 110.526L372.804 101.949C372.609 102.632 372.317 103.411 372.122 104.094C369.978 110.624 367.833 117.544 365.689 124.074L339.568 133.918L323.486 110.331L329.822 90.6433C330.114 89.8636 330.309 89.0838 330.601 88.2066L344.344 108.674C345.319 110.039 346.781 110.819 348.34 110.819C348.827 110.819 349.412 110.721 349.997 110.526Z" fill="#183961"></path><path d="M339.373 144.152L362.083 135.673C355.65 157.018 354.48 179.532 358.964 200.585C374.656 275.439 345.611 353.216 285.085 399.513L259.841 391.52C288.886 372.125 308.087 339.084 308.087 301.559C308.087 262.671 287.424 228.46 256.43 209.454C257.502 207.992 258.574 206.433 259.646 204.971C259.841 204.678 260.133 204.386 260.231 204.094C267.541 194.25 275.728 185.088 284.597 176.901C300.679 162.086 312.765 143.08 319.783 121.832L333.623 142.3C334.5 143.567 335.962 144.347 337.521 144.347C338.204 144.444 338.788 144.347 339.373 144.152Z" fill="#183961"></path><path d="M250.192 268.519C254.122 268.519 257.307 265.333 257.307 261.404C257.307 257.474 254.122 254.289 250.192 254.289C246.263 254.289 243.077 257.474 243.077 261.404C243.077 265.333 246.263 268.519 250.192 268.519Z" fill="#183961"></path><path d="M250.777 200.975C249.9 202.242 248.925 203.509 248.048 204.776C233.623 197.563 217.249 193.47 200.095 193.47C182.843 193.47 166.566 197.563 152.044 204.776C151.167 203.509 150.29 202.242 149.315 200.877C152.726 192.203 156.625 184.016 161.011 176.511C171.147 158.772 176.898 138.499 177.775 117.544L197.171 132.846C198.048 133.528 199.023 133.821 200.095 133.821C201.167 133.821 202.141 133.431 203.019 132.749L222.414 117.544C223.292 138.402 228.945 158.674 239.081 176.511C243.467 184.405 247.463 192.593 250.777 200.975Z" fill="#183961"></path><path d="M221.05 313.548C224.979 313.548 228.165 310.362 228.165 306.433C228.165 302.503 224.979 299.318 221.05 299.318C217.12 299.318 213.935 302.503 213.935 306.433C213.935 310.362 217.12 313.548 221.05 313.548Z" fill="#183961"></path><path d="M226.8 34.0156C226.8 36.6472 226.605 38.9864 226.215 41.2281C224.266 52.3392 223.194 61.5984 222.609 70.078L200.192 87.8167L177.58 69.9805C177.092 61.4035 175.923 52.1442 173.973 41.1306C173.584 38.9864 173.389 36.6472 173.389 34.0156C173.389 15.3021 185.377 0 200.094 0C214.812 0 226.8 15.3021 226.8 34.0156Z" fill="#183961"></path><path d="M222.317 82.5536V105.556L200.094 123.099L177.872 105.556V82.3587L197.17 97.5633C198.048 98.2456 199.022 98.538 200.094 98.538C201.166 98.538 202.141 98.2456 203.018 97.5633L222.317 82.5536Z" fill="#183961"></path><path d="M192.297 268.519C196.227 268.519 199.412 265.333 199.412 261.404C199.412 257.474 196.227 254.289 192.297 254.289C188.368 254.289 185.182 257.474 185.182 261.404C185.182 265.333 188.368 268.519 192.297 268.519Z" fill="#183961"></path><path d="M140.543 205.166C141.518 206.628 142.59 208.09 143.662 209.552C112.766 228.557 92.1028 262.671 92.1028 301.559C92.1028 339.084 111.304 372.125 140.446 391.52L114.91 399.61C54.286 353.314 25.3387 275.536 41.0307 200.682C45.6116 179.24 44.5394 156.823 37.9118 135.575L60.9137 144.152C61.4011 144.347 61.9858 144.444 62.5706 144.444C64.1301 144.444 65.5921 143.762 66.5667 142.398L80.3094 122.125C87.2295 143.08 99.4128 162.086 115.3 176.901C124.169 185.088 132.356 194.25 139.666 203.899C139.861 204.386 140.153 204.776 140.543 205.166Z" fill="#183961"></path><path d="M70.1725 90.5458L76.6052 110.624L60.7183 133.918L34.1101 123.977C33.9152 123.392 33.7203 122.807 33.5253 122.222C31.6735 116.179 29.6267 109.844 27.7748 104.094C27.5799 103.314 27.2875 102.632 26.9951 101.852L50.0945 110.526C50.5819 110.721 51.1667 110.819 51.7515 110.819C53.3109 110.819 54.8704 110.136 55.7476 108.674L69.3928 88.4016C69.6852 89.0838 69.9776 89.8635 70.1725 90.5458Z" fill="#183961"></path><path d="M66.2739 76.1208L49.997 100.195L22.6091 89.961C19.2953 81.9688 15.5916 74.4639 12.1803 67.7388C11.1082 65.5945 10.1335 63.3528 9.35377 61.1111C3.70075 43.2749 10.5234 25.0487 24.461 20.5653C38.4961 16.0819 54.5779 26.9981 60.231 44.8343C61.0107 46.8811 61.498 49.2203 61.8879 51.7544C63.1549 60.8187 64.5195 68.8109 66.2739 76.1208Z" fill="#183961"></path><path d="M248.437 215.789C278.359 232.749 298.632 264.815 298.632 301.462C298.632 339.279 277.19 372.222 245.903 388.694C232.258 395.906 216.664 400 200.094 400C183.428 400 167.736 395.809 153.896 388.402C122.804 371.832 101.654 338.986 101.654 301.462C101.654 264.327 122.317 231.969 152.726 215.205C166.761 207.407 182.94 203.021 200.094 203.021C216.761 203.021 232.55 207.212 246.293 214.62C246.488 214.815 246.683 215.01 246.975 215.107C247.463 215.4 247.95 215.595 248.437 215.789ZM266.858 261.403C266.858 252.242 259.354 244.737 250.192 244.737C241.03 244.737 233.525 252.242 233.525 261.403C233.525 270.565 241.03 278.07 250.192 278.07C259.354 278.07 266.858 270.565 266.858 261.403ZM237.716 306.53C237.716 297.368 230.211 289.864 221.05 289.864C211.888 289.864 204.383 297.368 204.383 306.53C204.383 315.692 211.888 323.197 221.05 323.197C230.211 323.197 237.716 315.692 237.716 306.53ZM208.964 261.403C208.964 252.242 201.459 244.737 192.297 244.737C183.135 244.737 175.63 252.242 175.63 261.403C175.63 270.565 183.135 278.07 192.297 278.07C201.459 278.07 208.964 270.565 208.964 261.403Z" fill="#808080"></path></g><defs><clipPath id="clip0_1186_230"><rect width="400" height="400" fill="white"></rect></clipPath></defs></svg> 