<?xml version="1.0" encoding="UTF-8"?> <svg xmlns="http://www.w3.org/2000/svg" width="400" height="400" viewBox="0 0 400 400" fill="none"><path d="M254.688 156.25C275.012 169.078 294.049 172.182 317.665 174.984C343.76 178.164 372.686 182.969 391.602 202.93C397.497 213.628 398.743 219.24 396.875 231.25C390.625 240.625 390.625 240.625 381.25 243.75C373.96 243.874 366.666 243.888 359.375 243.75C359.633 240.076 359.891 236.403 360.156 232.617C360.102 217.243 356.06 209.203 346.875 196.875C335.652 188.713 329.552 187.5 315.625 187.5C301.523 190.175 293.662 194.973 284.375 206.25C282.313 218.625 280.25 231 278.125 243.75C228.625 243.75 179.125 243.75 128.125 243.75C127.094 233.438 126.063 223.125 125 212.5C120.448 201.239 117.056 197.797 106.836 191.211C92.0899 185.717 82.9105 185.717 68.1643 191.211C57.9448 197.797 54.5528 201.239 50.0002 212.5C48.374 222.895 47.4665 233.249 46.8752 243.75C28.9064 241.406 28.9064 241.406 21.8752 234.375C21.0842 225.058 20.718 216.157 20.7033 206.836C20.6268 204.312 20.5502 201.789 20.4714 199.188C20.4085 186.383 20.8252 179.791 27.8078 168.714C37.9422 159.125 45.1722 158.678 58.7893 157.031C78.1475 154.217 94.9098 148.578 112.891 141.004C157.311 123.682 215.401 131.428 254.688 156.25ZM156.25 140.625C160.131 158.631 160.131 158.631 171.875 171.875C182.367 175.372 190.257 175.355 201.306 175.305C205.224 175.295 209.141 175.285 213.178 175.275C217.272 175.249 221.367 175.222 225.586 175.195C229.759 175.18 233.932 175.166 238.104 175.153C248.32 175.116 258.535 175.064 268.75 175C235.305 147.69 198.742 138.998 156.25 140.625Z" fill="#12325B"></path><path d="M317.773 189.453C329.527 189.52 336.383 190.48 345.508 198.047C356.83 210.24 357.167 217.491 356.909 233.582C355.983 243.482 353.45 248.799 346.875 256.25C332.405 265.135 320.36 266.913 303.735 266.541C301.473 266.527 299.21 266.514 296.879 266.5C289.715 266.448 282.554 266.331 275.391 266.211C270.508 266.164 265.625 266.121 260.742 266.083C248.827 265.98 236.914 265.818 225 265.625C225 261.5 225 257.375 225 253.125C255.937 251.578 255.937 251.578 287.5 250C285.437 245.875 283.375 241.75 281.25 237.5C280.178 222.134 282.269 211.902 292.188 200C294.766 197.937 297.344 195.875 300 193.75C305.101 188.649 310.748 189.726 317.773 189.453ZM309.375 218.75C309.375 223.906 309.375 229.062 309.375 234.375C316.866 236.499 316.866 236.499 325 237.5C327.063 235.437 329.125 233.375 331.25 231.25C330.255 224.662 330.255 224.662 328.125 218.75C318.596 215.59 318.596 215.59 309.375 218.75Z" fill="#12325B"></path><path d="M103.125 190.625C114.446 196.512 120.905 203.342 125 215.625C126.781 243.235 126.781 243.235 115.625 256.25C97.6846 268.689 79.1202 266.691 58.2031 266.211C52.9643 266.148 52.9643 266.148 47.6196 266.083C39.0365 265.973 30.4566 265.819 21.875 265.625C21.875 261.5 21.875 257.375 21.875 253.125C33.2188 252.094 44.5625 251.063 56.25 250C54.1875 245.875 52.125 241.75 50 237.5C48.4995 223.996 49.0883 217.291 55.6641 205.274C69.2811 188.544 82.7057 187.454 103.125 190.625ZM79.1016 220.313C77.748 221.86 76.3945 223.406 75 225C77.0625 229.125 79.125 233.25 81.25 237.5C86.4062 236.469 91.5625 235.438 96.875 234.375C99.0046 228.463 99.0046 228.463 100 221.875C97.9375 219.813 95.875 217.75 93.75 215.625C84.3669 214.587 84.3669 214.587 79.1016 220.313Z" fill="#12325B"></path><path d="M6.25 134.375C48.5846 131.499 48.5846 131.499 59.7168 138.55C63.8672 143.75 63.8672 143.75 68.75 153.125C33.8173 161.485 33.8173 161.485 19.8608 156.311C13.8623 152.452 8.42197 148.519 3.125 143.75C4.15625 140.656 5.1875 137.562 6.25 134.375Z" fill="#12325B"></path><path d="M84.375 218.75C87.4688 219.781 90.5625 220.812 93.75 221.875C93.75 226 93.75 230.125 93.75 234.375C89.625 233.344 85.5 232.313 81.25 231.25C82.2813 227.125 83.3125 223 84.375 218.75Z" fill="#12325B"></path><path d="M318.75 218.75C320.813 219.781 322.875 220.812 325 221.875C325 226 325 230.125 325 234.375C320.875 233.344 316.75 232.313 312.5 231.25C312.5 228.156 312.5 225.062 312.5 221.875C314.563 220.844 316.625 219.813 318.75 218.75Z" fill="#12325B"></path></svg> 