<?xml version="1.0" encoding="UTF-8"?> <svg xmlns="http://www.w3.org/2000/svg" width="400" height="400" viewBox="0 0 400 400" fill="none"><path d="M183.55 41.2246C187.065 46.2817 189.336 51.9888 190.329 58.0246C197.886 54.0388 206.622 48.7531 215.036 41.8388C221.957 36.1174 231.379 35.4603 239.036 40.1674C246.6 44.8174 250.2 53.4103 248.243 62.0674C248.15 62.5317 248.043 62.9817 247.929 63.3103C246.479 69.4532 242.429 75.5603 236.407 80.3889C229.407 86.046 214.543 94.9532 191 95.5389V97.946H243.25C251.265 92.1389 257.672 84.5746 262.193 75.2889C269.557 60.3389 267.265 42.7388 256.5 31.4674C235.922 9.82454 202.036 28.246 183.557 41.2388L183.55 41.2246Z" fill="#808080"></path><path d="M0 116.56V155.575C0 157.932 1.94286 159.846 4.34286 159.846H106.507V112.217H53.6857C53.6286 112.217 53.5715 112.239 53.5143 112.239C53.4643 112.239 53.4215 112.217 53.3715 112.217H4.34286C1.94286 112.217 0 114.167 0 116.56Z" fill="#808080"></path><path d="M234.971 295.503C238.193 294.596 241.464 294.346 244.707 294.575C249.221 282.76 255.143 273.118 260.443 265.918C245.75 252.196 237.393 233.189 237.393 212.718C237.393 210.246 237.536 207.775 237.778 205.318C224.557 200.175 215.057 188.203 212.993 174.139H192.628V345.603H211.571C207.736 321.71 217.178 300.51 234.971 295.503Z" fill="#808080"></path><path d="M67.6003 52.3317C66.4788 53.0246 63.9717 55.0389 64.8431 58.8889C64.886 59.046 64.9145 59.2103 64.9431 59.3746C66.0574 63.296 68.3788 66.5817 71.6788 69.2175C77.236 73.7103 89.0288 80.7175 108.165 81.2603V73.7318C98.8646 69.2532 86.6574 62.4032 75.0503 52.8603C71.7288 50.1246 68.5003 51.7532 67.5931 52.3246L67.6003 52.3317Z" fill="#808080"></path><path d="M18.7354 174.132H106.507V345.596H18.7354V174.132Z" fill="#808080"></path><path d="M294.814 112.217H245.779C245.729 112.217 245.686 112.239 245.636 112.239C245.579 112.239 245.522 112.217 245.464 112.217H192.636V159.846H213.55C217.436 142.06 233.164 128.925 252.1 128.925C264.707 128.925 276.222 134.875 283.579 144.739C288.636 142.732 293.843 141.296 299.164 140.482V116.567C299.164 114.175 297.222 112.225 294.822 112.225L294.814 112.217Z" fill="#808080"></path><path d="M120.793 112.217H178.35V159.846H120.793V112.217Z" fill="#808080"></path><path d="M234.214 59.3674C234.243 59.2103 234.272 59.0531 234.307 58.896C235.186 55.0388 232.672 53.0174 231.55 52.3317C230.643 51.7674 227.393 50.146 224.122 52.8531C212.507 62.396 200.3 69.2531 190.986 73.7317V81.2531C210.107 80.696 221.907 73.7174 227.443 69.2388C230.95 66.4317 233.343 62.9317 234.207 59.3603L234.214 59.3674Z" fill="#808080"></path><path d="M42.6716 31.4388C31.9002 42.7245 29.6145 60.3246 36.9573 75.2389C41.4859 84.546 47.9002 92.1103 55.9216 97.9246H108.172V95.5174C84.6073 94.9317 69.7573 86.0174 62.7359 80.346C56.743 75.5603 52.7002 69.4531 51.0716 62.7103C51.0288 62.5388 50.9788 62.3031 50.9288 62.0531C48.9573 53.4031 52.5645 44.8103 60.1145 40.1603C67.7859 35.446 77.2145 36.1103 84.1502 41.8388C92.5431 48.7388 101.25 54.0103 108.793 57.9888C109.807 51.9746 112.1 46.2174 115.579 41.1888C97.0859 28.2031 63.2288 9.81024 42.6788 31.4317L42.6716 31.4388Z" fill="#808080"></path><path d="M120.793 174.132H178.35V345.596H120.793V174.132Z" fill="#808080"></path><path d="M176.707 69.346V64.7674C176.707 57.5746 173.878 50.7531 168.735 45.5603C157.685 35.0388 140.978 35.4746 130.921 45.1246C125.528 50.246 122.45 57.4031 122.45 64.7674V97.9317H176.707V69.3532V69.346Z" fill="#808080"></path><path d="M367.079 298.51C362.657 287.36 356.929 278.61 352.307 272.639C340.157 281.182 325.572 285.86 310.543 285.86C296.814 285.86 283.3 281.896 271.743 274.653C267.236 280.81 262.264 288.925 258.386 298.789C269.586 305.003 279.171 317.518 283.743 333.76C287.229 346.16 287.157 358.868 283.536 369.518C282.486 372.618 281.15 375.432 279.6 377.975H345.322C338.45 366.775 336.543 350.56 341.264 333.76C345.9 317.289 355.679 304.639 367.079 298.51Z" fill="#183961"></path><path d="M310.55 153.853C309.222 153.853 307.964 153.925 306.707 153.996C298.879 154.46 291.25 156.525 284.057 160.117C272.772 165.789 263.443 175.167 257.8 186.517C255.457 191.196 253.75 196.267 252.707 201.589C252.029 205.196 251.679 208.953 251.679 212.71C251.679 231.11 260.022 248.075 274.564 259.253C284.943 267.325 297.372 271.575 310.543 271.575C324.586 271.575 338.15 266.525 348.743 257.36C361.836 246.196 369.329 229.932 369.329 212.717C369.329 209.01 368.986 205.339 368.329 201.796C368.315 201.732 368.272 201.682 368.257 201.617C368.243 201.553 368.272 201.489 368.257 201.425C367.229 196.203 365.536 191.182 363.214 186.532C357.614 175.189 348.286 165.817 336.943 160.11C328.643 155.96 319.757 153.853 310.55 153.853ZM276.193 231.517C266.786 231.517 259.122 223.86 259.122 214.446V201.117C259.122 191.703 266.779 184.046 276.193 184.046C285.607 184.046 293.272 191.703 293.272 201.117V214.446C293.272 223.86 285.614 231.517 276.193 231.517ZM332.122 242.353L325.143 254.439C322.507 259.01 317.779 261.732 312.507 261.732C307.236 261.732 302.507 259.01 299.864 254.439L292.886 242.353C290.25 237.789 290.25 232.339 292.886 227.767C295.522 223.196 300.243 220.475 305.522 220.475H319.472C324.743 220.475 329.464 223.196 332.107 227.767C334.75 232.339 334.75 237.789 332.107 242.353H332.122ZM365.9 201.117V214.446C365.9 223.86 358.243 231.517 348.822 231.517C339.4 231.517 331.75 223.86 331.75 214.446V201.117C331.75 191.703 339.407 184.046 348.822 184.046C358.236 184.046 365.9 191.703 365.9 201.117Z" fill="#183961"></path><path d="M348.822 217.232C350.365 217.232 351.615 215.982 351.615 214.446V201.118C351.615 199.582 350.365 198.332 348.822 198.332C347.279 198.332 346.036 199.582 346.036 201.118V214.446C346.036 215.982 347.286 217.232 348.822 217.232Z" fill="#183961"></path><path d="M305.529 234.76L312.25 247.296L312.572 247.996L312.929 247.296L319.75 235.21L305.529 234.76Z" fill="#183961"></path><path d="M245.014 180.146C250.814 168.489 259.793 158.532 270.672 151.432C265.986 146.26 259.314 143.217 252.1 143.217C238.486 143.217 227.393 153.789 226.85 167.282C226.836 167.582 226.807 167.875 226.757 168.175C226.772 178.096 232.414 186.725 240.786 190.946C241.95 187.21 243.3 183.575 245.014 180.146Z" fill="#183961"></path><path d="M241.25 373.018C246.928 377.76 252.964 379.553 258.193 378.082C263.428 376.603 267.628 371.939 270.007 364.932C272.707 356.982 272.7 347.282 269.986 337.632C265.293 320.925 253.35 308.753 242.543 308.753C241.286 308.753 240.043 308.918 238.828 309.26C227.193 312.532 221.785 331.053 227.035 349.71C229.75 359.368 234.793 367.639 241.243 373.018H241.25Z" fill="#183961"></path><path d="M376.014 180.175C377.729 183.603 379.079 187.239 380.243 190.96C388.6 186.76 394.222 178.16 394.222 168.425C394.222 154.51 382.9 143.196 368.993 143.196C361.75 143.196 355.057 146.246 350.35 151.425C361.279 158.553 370.257 168.51 376.022 180.175H376.014Z" fill="#183961"></path><path d="M386.172 309.26C384.957 308.918 383.714 308.753 382.457 308.753C381.129 308.753 379.779 308.946 378.429 309.303C378.386 309.318 378.364 309.346 378.322 309.36C378.272 309.375 378.229 309.368 378.179 309.382C368.65 312.032 359.093 323.103 355.014 337.632C349.772 356.289 355.172 374.81 366.807 378.082C372.029 379.568 378.064 377.76 383.75 373.018C390.2 367.639 395.243 359.36 397.957 349.71C400.672 340.06 400.679 330.36 397.979 322.41C395.6 315.403 391.407 310.732 386.172 309.26Z" fill="#183961"></path><path d="M276.193 198.325C274.658 198.325 273.408 199.575 273.408 201.11V214.439C273.408 215.975 274.658 217.225 276.193 217.225C277.729 217.225 278.986 215.975 278.986 214.439V201.11C278.986 199.575 277.736 198.325 276.193 198.325Z" fill="#183961"></path></svg> 