<?xml version="1.0" encoding="UTF-8"?> <svg xmlns="http://www.w3.org/2000/svg" width="400" height="400" viewBox="0 0 400 400" fill="none"><g clip-path="url(#clip0_1190_307)"><path d="M314.062 5.85938C314.062 2.625 311.437 0 308.203 0H288.672C270.797 0 256.18 14.2031 255.5 31.9219C275.945 35.3516 295.633 40.6719 314.062 47.7188V5.85938Z" fill="#183961"></path><path d="M397.57 79.2345C396.039 78.1329 394.078 77.836 392.289 78.4298L364.844 87.5782V158.524L392.289 167.672C392.891 167.875 393.516 167.969 394.141 167.969C395.352 167.969 396.555 167.594 397.57 166.859C399.102 165.758 400 163.992 400 162.109V83.9845C400 82.1017 399.094 80.336 397.57 79.2345ZM388.281 130.859C388.281 134.094 385.656 136.719 382.422 136.719C379.188 136.719 376.562 134.094 376.562 130.859V115.234C376.562 112 379.188 109.375 382.422 109.375C385.656 109.375 388.281 112 388.281 115.234V130.859Z" fill="#183961"></path><path d="M330.859 368.75H69.1406C62.6719 368.75 57.4219 374 57.4219 380.469V400H342.578V380.469C342.578 374 337.328 368.75 330.859 368.75Z" fill="#183961"></path><path d="M217.578 357.031V336.383L182.422 341.07V357.031H217.578Z" fill="#808080"></path><path d="M182.422 238.281V258.93L217.578 254.242V238.281H182.422Z" fill="#808080"></path><path d="M264.453 289.828C264.453 286.344 261.383 283.664 257.938 284.125L140.547 299.781C137.687 300.164 135.555 302.602 135.555 305.484C135.555 308.969 138.625 311.648 142.07 311.187L259.461 295.531C262.32 295.148 264.453 292.711 264.453 289.828Z" fill="#808080"></path><path d="M264.453 313.266C264.453 309.781 261.383 307.102 257.938 307.562L140.547 323.219C137.687 323.602 135.555 326.039 135.555 328.922C135.555 332.406 138.625 335.086 142.07 334.625L259.461 318.969C262.32 318.586 264.453 316.148 264.453 313.266Z" fill="#808080"></path><path d="M264.453 266.391C264.453 262.906 261.383 260.227 257.938 260.687L140.547 276.344C137.687 276.727 135.555 279.164 135.555 282.047C135.555 285.531 138.625 288.211 142.07 287.75L259.461 272.094C262.32 271.711 264.453 269.273 264.453 266.391Z" fill="#808080"></path><path d="M231.336 156.25H278.906V140.625H216.734L222.852 151.328C224.586 154.367 227.836 156.25 231.328 156.25H231.336Z" fill="#183961"></path><path d="M350.312 78.3359C341.352 72.8906 331.844 67.9609 321.875 63.5781V182.5C331.828 178.133 341.344 173.211 350.312 167.758C352.062 166.695 353.125 164.797 353.125 162.75V83.3359C353.125 81.2891 352.055 79.3906 350.312 78.3281V78.3359Z" fill="#183961"></path><path d="M81.3984 123.047C81.3984 103.156 78.1406 83.9375 71.9141 66.4609C43.25 80 18.9297 98.0313 1.34375 119.313C-0.445312 121.477 -0.445312 124.609 1.34375 126.781C18.8281 147.937 43.0469 166.062 71.8984 179.687C78.1406 162.195 81.3984 142.961 81.3984 123.047Z" fill="#183961"></path><path d="M84.0234 185.031C99.0703 191.219 115.062 196.141 131.641 199.758V214.844C131.641 221.313 136.891 226.563 143.359 226.563H256.641C263.109 226.563 268.359 221.313 268.359 214.844V199.719C282.828 196.555 296.836 192.414 310.156 187.313V58.7657C287.953 50.2423 263.805 44.3282 238.664 41.3439C235.664 40.9845 232.891 42.9611 232.25 45.9142C228.172 64.5782 211.32 78.1329 192.188 78.1329C173.055 78.1329 157.391 65.6642 152.586 47.8048C151.805 44.8907 148.922 43.047 145.953 43.547C123.547 47.3361 102.227 53.5001 82.6563 61.6876C89.5313 80.6564 93.1172 101.508 93.1172 123.047C93.1172 144.586 89.5234 165.477 82.6406 184.453C83.1016 184.649 83.5625 184.844 84.0234 185.031ZM201.578 131.82C202.625 130.016 204.555 128.899 206.648 128.899H284.773C288.008 128.899 290.633 131.524 290.633 134.758V162.102C290.633 165.336 288.008 167.961 284.773 167.961H231.344C223.656 167.961 216.508 163.813 212.688 157.133L201.562 137.664C200.523 135.852 200.531 133.625 201.578 131.813V131.82ZM109.383 103.508C109.383 100.274 112.008 97.6485 115.242 97.6485C118.477 97.6485 121.102 100.274 121.102 103.508V111.32C121.102 114.555 118.477 117.18 115.242 117.18C112.008 117.18 109.383 114.555 109.383 111.32V103.508ZM109.383 134.758C109.383 131.524 112.008 128.899 115.242 128.899C118.477 128.899 121.102 131.524 121.102 134.758V142.57C121.102 145.805 118.477 148.43 115.242 148.43C112.008 148.43 109.383 145.805 109.383 142.57V134.758Z" fill="#183961"></path></g><defs><clipPath id="clip0_1190_307"><rect width="400" height="400" fill="white"></rect></clipPath></defs></svg> 