<?xml version="1.0" encoding="UTF-8"?> <svg xmlns="http://www.w3.org/2000/svg" id="Layer_1" version="1.1" viewBox="0 0 100 100"><defs><style> .st0 { fill: #fff; fill-rule: evenodd; } </style></defs><path class="st0" d="M8.1,59.7c1,4.3,2.7,8.4,5.1,12.2l-3.5,7.9,9.4,9.4,7.9-3.5c3.8,2.3,7.9,4,12.2,5.1l3.1,8.1h13.2l3.1-8.1c4.3-1,8.4-2.7,12.2-5.1l7.9,3.5,9.4-9.4-3.5-7.8h-.6c-.4,0-.8,0-1.2,0l-3.7.6c-5,.8-10.5,1.7-15.5.2-.9-.2-1.7-.6-2.5-.9-3.6,2-7.8,3.2-12.2,3.2-13.9,0-25.1-11.2-25.1-25.1s11.2-25.1,25.1-25.1,8.5,1.1,12.1,3.1c3-2.2,5.7-4.7,5.7-8.8v-7.2c-2.6-1.2-5.3-2.1-8-2.8l-3.1-8.1h-13.2l-3.1,8.1c-4.3,1-8.4,2.7-12.2,5.1l-7.9-3.5-9.4,9.4,3.5,7.9c-2.3,3.8-4,7.9-5.1,12.2L.1,43.3v13.2l8.1,3.1h-.1ZM55.9,65.4h-10.2v-30.7h10.2v30.7ZM77.4,36.3c0,4.3,2.9,4.5-4.7,8.9-.8.5-1.1,1.5-.6,2.3s1.5,1.1,2.3.6c.3-.2.7-.4,1.1-.7.3,1.3.9,2.4,1.8,3.2.4.4.9.8,1.5,1.1-.8,1.1-1.4,2.5-1.4,4s.8,3.6,2.2,4.9c-1.4,1.2-2.2,3-2.2,4.9s.4,2.7,1.2,3.7c-5.7.9-10.1,1.4-14,.3-1.8-.5-3.5-1.4-5.3-2.7v-33.5c1.6-1.1,3.2-2.2,4.7-3.4,3.4-2.7,6.1-5.9,6.1-10.7v-9.3c6.1,0,11.2,5,11.2,11.2v7.2c-.3,2.1-.6,2-1.8,3.3-1.2,1.2-1.9,2.8-1.9,4.6h-.2ZM94.8,39.4h-10.8c-1.7,0-3.2-1.4-3.2-3.2s1.4-3.2,3.2-3.2h10.8c1.7,0,3.2,1.4,3.2,3.2s-1.4,3.2-3.2,3.2h0ZM96.8,49.2h-14.9c-5,0-3.2-1.4-3.2-3.2s1.4-3.2,3.2-3.2h14.9c1.7,0,3.2,1.4,3.2,3.2s-1.4,3.2-3.2,3.2h0ZM93.4,58.9h-9.4c-1.7,0-3.2-1.4-3.2-3.2s1.4-3.2,3.2-3.2h9.4c1.7,0,3.2,1.4,3.2,3.2s-1.4,3.2-3.2,3.2ZM84,68.7c-1.7,0-3.2-1.4-3.2-3.2s1.3-3.1,3-3.2h6.7c1.7,0,3.2,1.4,3.2,3.2s-1.4,3.2-3.2,3.2h-6.5ZM84.6,28v-6.8c0-1.9-.4-3.8-1.1-5.6l4.6,4.6-3.5,7.8Z"></path></svg> 