<?xml version="1.0" encoding="UTF-8"?> <svg xmlns="http://www.w3.org/2000/svg" width="400" height="400" viewBox="0 0 400 400" fill="none"><g clip-path="url(#clip0_1186_223)"><path d="M328.571 185.714H280.511C270.836 185.714 261.747 189.481 254.904 196.324L239.181 212.047C237.737 213.491 235.819 214.286 233.775 214.286H166.225C164.181 214.286 162.263 213.491 160.819 212.047L145.096 196.324C138.253 189.481 129.164 185.714 119.489 185.714H71.4286C29.3318 185.714 0 245.947 0 300C0 356.076 31.3756 400 71.4286 400C100.656 400 126.018 371.191 133.098 342.857C136.544 329.143 148.821 314.286 162.953 314.286H237.047C251.179 314.286 263.456 329.157 266.895 342.857C273.982 371.205 299.344 400 328.571 400C368.624 400 400 356.076 400 300C400 245.947 370.668 185.714 328.571 185.714ZM107.143 271.429H85.7143V292.857C85.7143 296.805 82.5195 300 78.5714 300C74.6233 300 71.4286 296.805 71.4286 292.857V271.429H50C46.0519 271.429 42.8571 268.234 42.8571 264.286C42.8571 260.338 46.0519 257.143 50 257.143H71.4286V235.714C71.4286 231.766 74.6233 228.571 78.5714 228.571C82.5195 228.571 85.7143 231.766 85.7143 235.714V257.143H107.143C111.091 257.143 114.286 260.338 114.286 264.286C114.286 268.234 111.091 271.429 107.143 271.429ZM314.286 214.286C322.164 214.286 328.571 220.694 328.571 228.571C328.571 236.449 322.164 242.857 314.286 242.857C306.408 242.857 300 236.449 300 228.571C300 220.694 306.408 214.286 314.286 214.286ZM285.714 271.429C277.837 271.429 271.429 265.021 271.429 257.143C271.429 249.265 277.837 242.857 285.714 242.857C293.592 242.857 300 249.265 300 257.143C300 265.021 293.592 271.429 285.714 271.429ZM314.286 300C306.408 300 300 293.592 300 285.714C300 277.836 306.408 271.429 314.286 271.429C322.164 271.429 328.571 277.836 328.571 285.714C328.571 293.592 322.164 300 314.286 300ZM342.857 271.429C334.979 271.429 328.571 265.021 328.571 257.143C328.571 249.265 334.979 242.857 342.857 242.857C350.735 242.857 357.143 249.265 357.143 257.143C357.143 265.021 350.735 271.429 342.857 271.429Z" fill="#808080"></path><path d="M385.714 114.286H371.429V42.8572H385.714C393.604 42.8572 400 49.2531 400 57.1429V100C400 107.89 393.604 114.286 385.714 114.286Z" fill="#183961"></path><path d="M14.2857 114.286H28.5714V42.8572H14.2857C6.39593 42.8572 0 49.2531 0 57.1429V100C0 107.89 6.39593 114.286 14.2857 114.286Z" fill="#183961"></path><path d="M314.286 0H85.7141C62.0446 0 42.8569 19.1877 42.8569 42.8571V114.286C42.8569 137.955 62.0446 157.143 85.7141 157.143H133.477C144.918 157.143 156.054 150.998 160.511 140.461C167.016 125.078 182.247 114.286 200 114.286C217.752 114.286 232.983 125.078 239.489 140.461C243.945 150.998 255.081 157.143 266.523 157.143H314.286C337.955 157.143 357.143 137.955 357.143 114.286V42.8571C357.143 19.1877 337.955 0 314.286 0ZM221.428 42.8571C217.484 42.8571 214.286 39.6589 214.286 35.7143C214.286 31.7688 217.484 28.5714 221.428 28.5714C225.373 28.5714 228.571 31.7688 228.571 35.7143C228.571 39.6589 225.373 42.8571 221.428 42.8571ZM328.571 78.5714C328.571 82.5195 325.376 85.7143 321.428 85.7143C317.48 85.7143 314.286 82.5195 314.286 78.5714V64.2857C314.286 52.4693 304.673 42.8571 292.857 42.8571H250C246.052 42.8571 242.857 39.6624 242.857 35.7143C242.857 31.7662 246.052 28.5714 250 28.5714H292.857C312.556 28.5714 328.571 44.5871 328.571 64.2857V78.5714Z" fill="#183961"></path></g><defs><clipPath id="clip0_1186_223"><rect width="400" height="400" fill="white"></rect></clipPath></defs></svg> 